<svg xmlns="http://www.w3.org/2000/svg" width="804.909" height="783.894" viewBox="0 0 804.909 783.894"><g transform="translate(-128.534)"><path d="M627.332,841.142c0,15.287-94.578,27.672-211.447,27.752h-1.063c-57.046,0-108.848-2.936-147.02-7.7-1.634-.217-3.245-.423-4.822-.64-6.49-.857-12.556-1.782-18.143-2.742-26.7-4.65-42.525-10.42-42.525-16.669,0-5.061,10.351-9.791,28.437-13.882C240.3,825.1,252,823.135,265.483,821.4q3.719-.5,7.632-.937c37.6-4.4,87.266-7.072,141.707-7.072,10.58,0,20.988.1,31.157.3C548.566,815.652,627.332,827.191,627.332,841.142Z" transform="translate(-73.779 -85)" fill="#3f3d56"/><rect width="314.754" height="161.311" transform="translate(617.705 416.066)" fill="#f2f2f2"/><rect width="314.754" height="161.311" transform="translate(226.23 0.984)" fill="#f2f2f2"/><path d="M615.746,248.279H299.025V85H615.746Zm-314.754-1.967H613.779V86.967H300.992Z" transform="translate(-73.779 -85)" fill="#bf224e"/><rect width="314.754" height="161.311" transform="translate(617.705 0.984)" fill="#f2f2f2"/><rect width="314.754" height="161.311" transform="translate(226.23 208.525)" fill="#f2f2f2"/><rect width="314.754" height="161.311" transform="translate(617.705 208.525)" fill="#f2f2f2"/><rect width="314.754" height="161.311" transform="translate(226.23 416.066)" fill="#f2f2f2"/><path d="M580.494,662.044q-19.185-3.25-36.9-5.583l4.669-9.052c-1.574-.547-8.491,4.637-8.491,4.637l6.127-26.277c-7.918.955-11.944,27.786-11.944,27.786l-8.847-9.071,4.283,10.2a816.818,816.818,0,0,0-93.623-5.892l4-7.748c-1.574-.547-8.491,4.637-8.491,4.637L437.4,619.4c-7.918.955-11.944,27.786-11.944,27.786l-8.847-9.071,4.536,10.8a525.927,525.927,0,0,0-53.82,3.656c4.042-12.07,17.773-23.55,17.773-23.55-10.486,3.119-15.987,8.345-18.861,13.217a211.64,211.64,0,0,1,12.233-73.124s-21.674,47.166-18.909,78.825l.331,5.622c-18.375,2.631-25.6,8.813-25.6,8.813Z" transform="translate(-73.779 -85)" fill="#3f3d56"/><circle cx="34.787" cy="34.787" r="34.787" transform="translate(320.918 220.801)" fill="#ff6584"/><path d="M729,475.767l-4.078-3.263,22.839-20.392H805.67v17.945l-37.521,25.286Z" fill="#3f3d56"/><path d="M816.229,463.551V452.52H808.54v2.7l-2.87-3.109L786.909,472.5l-7.341,4.894L768.186,560.56l17.166,17.166h39.894V473.32Z" fill="#ccc"/><rect width="61.991" height="105.222" transform="translate(724.918 472.504)" fill="#f2f2f2"/><rect width="11.419" height="25.694" transform="translate(748.98 552.032)" fill="#ccc"/><path d="M736.745,559.373v-4.078h-4.894v4.078h4.894Z" fill="#3f3d56"/><path d="M736.338,562.636h-4.487v4.078h4.894v-4.078Z" fill="#3f3d56"/><rect width="4.894" height="4.078" transform="translate(740.008 555.295)" fill="#3f3d56"/><rect width="4.894" height="4.078" transform="translate(740.008 562.636)" fill="#3f3d56"/><path d="M770.188,559.373v-4.078h-4.894v4.078h4.894Z" fill="#3f3d56"/><path d="M769.78,562.636h-4.486v4.078h4.894v-4.078Z" fill="#3f3d56"/><rect width="4.894" height="4.078" transform="translate(773.451 555.295)" fill="#3f3d56"/><rect width="4.894" height="4.078" transform="translate(773.451 562.636)" fill="#3f3d56"/><path d="M804.446,477.806v-4.079h-4.894v4.079h4.894Z" fill="#3f3d56"/><path d="M804.038,481.069h-4.486v4.078h4.894v-4.078Z" fill="#3f3d56"/><rect width="4.894" height="4.078" transform="translate(807.709 473.727)" fill="#3f3d56"/><rect width="4.894" height="4.078" transform="translate(807.709 481.069)" fill="#3f3d56"/><path d="M804.446,500.645v-4.079h-4.894v4.079h4.894Z" fill="#3f3d56"/><path d="M804.038,503.907h-4.486v4.079h4.894v-4.079Z" fill="#3f3d56"/><rect width="4.894" height="4.078" transform="translate(807.709 496.566)" fill="#3f3d56"/><rect width="4.894" height="4.078" transform="translate(807.709 503.907)" fill="#3f3d56"/><path d="M804.446,523.484v-4.079h-4.894v4.079h4.894Z" fill="#3f3d56"/><path d="M804.038,526.746h-4.486v4.079h4.894v-4.079Z" fill="#3f3d56"/><rect width="4.894" height="4.078" transform="translate(807.709 519.405)" fill="#3f3d56"/><rect width="4.894" height="4.078" transform="translate(807.709 526.746)" fill="#3f3d56"/><path d="M804.446,546.322v-4.078h-4.894v4.078h4.894Z" fill="#3f3d56"/><path d="M804.038,549.585h-4.486v4.079h4.894v-4.079Z" fill="#3f3d56"/><rect width="4.894" height="4.078" transform="translate(807.709 542.244)" fill="#3f3d56"/><rect width="4.894" height="4.078" transform="translate(807.709 549.585)" fill="#3f3d56"/><rect width="47.309" height="9.788" transform="translate(731.851 477.806)" fill="#3f3d56"/><rect width="47.309" height="9.788" transform="translate(731.851 497.382)" fill="#3f3d56"/><rect width="47.309" height="9.788" transform="translate(731.851 516.958)" fill="#3f3d56"/><rect width="47.309" height="9.788" transform="translate(731.851 536.534)" fill="#3f3d56"/><path d="M355.9,469.793h41.519V459.771h22.907v10.022h42.951v44.383H420.328v55.836H397.421V514.176H355.9l-21.476-24.339Z" fill="#3f3d56"/><path d="M551.811,454.836h-1.967a96.393,96.393,0,1,0-192.787,0H355.09a98.361,98.361,0,1,1,196.721,0Z" transform="translate(-73.779 -85)" fill="#3f3d56"/><rect width="2.514" height="99.297" transform="matrix(1, -0.002, 0.002, 1, 330.307, 270.989)" fill="#3f3d56"/><path d="M429.821,368.6c.225,34.721-24.15,63.028-24.15,63.028s-24.741-27.988-24.966-62.709,24.15-63.028,24.15-63.028S429.6,333.874,429.821,368.6Z" transform="translate(-73.779 -85)" fill="#bf224e"/><path d="M429.821,368.6c.225,34.721-24.15,63.028-24.15,63.028s-24.741-27.988-24.966-62.709,24.15-63.028,24.15-63.028S429.6,333.874,429.821,368.6Z" transform="translate(-73.779 -85)" opacity="0.1"/><rect width="2.514" height="99.297" transform="matrix(1, -0.002, 0.002, 1, 297.627, 271.05)" fill="#3f3d56"/><path d="M397.141,368.657c.225,34.721-24.15,63.028-24.15,63.028S348.25,403.7,348.025,368.976s24.15-63.028,24.15-63.028S396.916,333.936,397.141,368.657Z" transform="translate(-73.779 -85)" fill="#bf224e"/><rect width="1.99" height="78.61" transform="translate(465.544 291.88)" fill="#3f3d56"/><path d="M559.68,386.9c.127,27.488-19.213,49.861-19.213,49.861s-19.545-22.194-19.671-49.682,19.213-49.861,19.213-49.861S559.553,359.41,559.68,386.9Z" transform="translate(-73.779 -85)" fill="#bf224e"/><circle cx="68.408" cy="68.408" r="68.408" transform="translate(702.201 223.232)" fill="#3f3d56"/><path d="M777.45,266.171v28.636H735.823l-7.691,9.227.878-9.227h-3.741V266.171Z" fill="#bf224e"/><rect width="18.772" height="18.772" transform="translate(758.677 276.035)" opacity="0.1"/><path d="M762.813,280.171h52.181v28.636h-3.742l.879,9.227-7.69-9.227H762.813Z" fill="#bf224e"/><ellipse cx="11.454" cy="1.117" rx="11.454" ry="1.117" transform="translate(716.996 306.417)" opacity="0.1"/><ellipse cx="13.045" cy="1.273" rx="13.045" ry="1.273" transform="translate(799.085 321.216)" opacity="0.1"/><path d="M883.221,106.032h-45.2a9.609,9.609,0,0,0-9.374,7.5L805.8,214.838A7.766,7.766,0,0,0,813,224.3l46.47,2.29a10.26,10.26,0,0,0,10.6-8.422l12.956-71.627.964.275,2.479-13.576-.992-.248L889.092,113a5.917,5.917,0,0,0-5.871-6.969Z" transform="translate(-73.779 -85)" fill="#3f3d56"/><path d="M843.969,108.216h-5.277a6.641,6.641,0,0,0-6.488,5.225L810.281,213.924a4.115,4.115,0,0,0,3.751,4.983l46.319,3.036a5.329,5.329,0,0,0,5.593-4.373l18.708-103.859a4.668,4.668,0,0,0-4.594-5.5h-5.006a2.2,2.2,0,0,0-2.127,1.63h0a1.945,1.945,0,0,1-1.878,1.439H847.284a3.324,3.324,0,0,1-3.314-3.069Z" transform="translate(-73.779 -85)" fill="#bf224e"/><circle cx="65.461" cy="65.461" r="65.461" transform="translate(324.486 16.328)" fill="#bf224e"/><path d="M520.725,207.888c-12.568,0-40.323-12.908-65.007-28.027-30.63-18.761-60.379-43.283-55.178-51.774,1.47-2.4,5.113-3.027,11.141-1.921l-.432,2.353c-4.667-.859-7.826-.559-8.668.817-1.229,2.007,1.481,7.834,12.775,18.169,10.292,9.419,25.07,20.185,41.612,30.317s32.848,18.4,45.914,23.294c14.338,5.366,20.76,5.132,21.989,3.126.844-1.378-.329-4.331-3.218-8.1l1.9-1.454c3.731,4.872,4.829,8.406,3.358,10.807C525.9,207.139,523.754,207.888,520.725,207.888Z" transform="translate(-73.779 -85)" fill="#3f3d56"/><circle cx="13.39" cy="13.39" r="13.39" transform="translate(368.477 34.751)" fill="#fff"/><circle cx="8.926" cy="8.926" r="8.926" transform="translate(376.818 112.616)" fill="#fff"/><circle cx="8.926" cy="8.926" r="8.926" transform="translate(407.557 82.014)" fill="#fff"/><path d="M1007.221,663.361H690.5V500.082h316.721Zm-314.754-1.967h312.787V502.049H692.467Z" transform="translate(-73.779 -85)" fill="#bf224e"/><path d="M1005.254,456.8H688.533V293.525h316.721ZM690.5,454.836h312.787V295.492H690.5Z" transform="translate(-73.779 -85)" fill="#bf224e"/><path d="M357.556,528.634l-15.7,1.745s-6.979,31.407,0,73.282,15.7,83.751,15.7,83.751,6.979,136.1,10.469,137.841,34.9,12.214,36.641,1.745,1.745-249.509,1.745-249.509l24.427,115.158s3.49,144.82,10.469,144.82,29.662-1.745,29.662-13.959S476.2,650.771,476.2,650.771s-1.745-118.648-8.724-122.137S357.556,528.634,357.556,528.634Z" transform="translate(-73.779 -85)" fill="#2f2e41"/><path d="M371.515,820.018s-15.7-1.745-19.193,0-8.724,13.959,0,20.938S383.728,858.4,390.708,858.4s13.959-3.49,13.959-3.49l-3.49-29.662Z" transform="translate(-73.779 -85)" fill="#2f2e41"/><path d="M441.307,828.742l1.745,24.427s22.683,3.49,24.427,0,19.193-12.214,20.938-13.959,3.49-20.938-6.979-22.683-13.959,3.49-13.959,3.49Z" transform="translate(-73.779 -85)" fill="#2f2e41"/><path d="M481.854,321.015S520,296.484,519.118,279.631s-23.88-69.992-23.88-69.992-17.99-37.4-25.142-22.117,9.4,31.557,9.4,31.557l10.683,52.127-29.034,27.7Z" transform="translate(-73.779 -85)" fill="#a0616a"/><circle cx="31.407" cy="31.407" r="31.407" transform="translate(282.033 138.291)" fill="#a0616a"/><path d="M371.515,273.891l5.234,33.152,38.386-6.979s-1.745-33.152-1.745-36.641S371.515,273.891,371.515,273.891Z" transform="translate(-73.779 -85)" fill="#a0616a"/><path d="M369.77,307.042s43.62-10.469,48.855-6.979,31.407,6.979,31.407,6.979l29.662,45.365-8.724,57.579s-1.745,92.475,1.745,108.179S495.4,535.613,455.266,539.1s-47.11-1.745-75.027,5.234-50.6-3.49-43.62-10.469,19.193-118.648,5.234-129.116-19.193-64.558-19.193-64.558S369.77,315.766,369.77,307.042Z" transform="translate(-73.779 -85)" fill="#3f3d56"/><path d="M444.8,312.277l5.234-5.234L460.5,296.573s34.024,14.831,32.279,20.065-13.086,35.769-13.086,35.769l-15.7,5.234Z" transform="translate(-73.779 -85)" fill="#3f3d56"/><path d="M398.178,216.648l-.322-2.516a19.779,19.779,0,0,0-6.286.988,10.326,10.326,0,0,1,.388-4.521,20.1,20.1,0,0,0-5.818,2.529l-1.269-4.592-17.443,8.6c-6.261,3.086-12.862,6.477-16.442,12.47-3.99,6.681-3.3,15.268-.568,22.556s7.26,13.738,10.894,20.62a51.519,51.519,0,0,0,4.951,8.426c6.584,8.208,19.4,9.866,28.683,4.912,3.426-1.828,6.539-4.561,7.948-8.179.843-2.164,1.035-4.518,1.588-6.773,1.148-4.69,2.481-14.372,6.291-17.339,1.676-1.306,5,3.023,6.389,1.415,3.57-4.132,2.821-10.5.6-15.494a113.052,113.052,0,0,0-7.443-14.517C409.125,223.359,398.14,216.346,398.178,216.648Z" transform="translate(-73.779 -85)" fill="#2f2e41"/><path d="M294.743,382.069S252.867,422.2,258.1,443.138s47.11,82.006,47.11,82.006,40.131,20.938,45.365,0-27.917-15.7-27.917-15.7l-26.172-62.813,29.662-41.876Z" transform="translate(-73.779 -85)" fill="#a0616a"/><path d="M343.6,343.683l-20.938-3.49s-15.7,17.448-20.938,24.427-15.7,24.427-15.7,24.427l36.641,26.172,27.917-29.662Z" transform="translate(-73.779 -85)" fill="#3f3d56"/></g></svg>