<svg xmlns="http://www.w3.org/2000/svg" viewBox="0 0 24 24"><title>ac city real estate home house housing</title><g id="ac_city_real_estate_home_house_housing" data-name="ac city real estate home house housing"><path d="M22,1H2A1,1,0,0,0,1,2V13a1,1,0,0,0,1,1H22a1,1,0,0,0,1-1V2A1,1,0,0,0,22,1ZM8,3h8V5H8Zm13,9H3V3H6V6A1,1,0,0,0,7,7H17a1,1,0,0,0,1-1V3h3Z"/><path d="M7,16a1,1,0,0,0-1,1v5a1,1,0,0,0,2,0V17A1,1,0,0,0,7,16Z"/><path d="M12,16a1,1,0,0,0-1,1v5a1,1,0,0,0,2,0V17A1,1,0,0,0,12,16Z"/><path d="M17,16a1,1,0,0,0-1,1v5a1,1,0,0,0,2,0V17A1,1,0,0,0,17,16Z"/><path d="M18,9H6a1,1,0,0,0,0,2H18a1,1,0,0,0,0-2Z"/></g></svg>