<svg xmlns="http://www.w3.org/2000/svg" viewBox="0 0 24 24"><title>amount city real estate home house housing</title><g id="amount_city_real_estate_home_house_housing" data-name="amount city real estate home house housing"><path d="M22.71,11.29l-10-10a1,1,0,0,0-1.42,0l-10,10a1,1,0,0,0,1.42,1.42L4,11.41V22a1,1,0,0,0,1,1H19a1,1,0,0,0,1-1V11.41l1.29,1.3a1,1,0,0,0,1.42-1.42ZM18,21H6V9.41l6-6,6,6Z"/><path d="M13,12h.59L12,13.59l-1.29-1.3a1,1,0,0,0-1.42,0l-2,2a1,1,0,1,0,1.42,1.42L10,14.41l1.29,1.3a1,1,0,0,0,1.42,0L15,13.41V14a1,1,0,0,0,2,0V11a1,1,0,0,0-1-1H13a1,1,0,0,0,0,2Z"/><path d="M16,17H8a1,1,0,0,0,0,2h8a1,1,0,0,0,0-2Z"/></g></svg>