<svg xmlns="http://www.w3.org/2000/svg" viewBox="0 0 24 24"><title>apartment city real estate home house housing_1</title><g id="apartment_city_real_estate_home_house_housing" data-name="apartment city real estate home house housing"><path d="M22,6H17V2a1,1,0,0,0-1.24-1l-8,2A1,1,0,0,0,7,4V9H2a1,1,0,0,0-1,1V22a1,1,0,0,0,1,1H22a1,1,0,0,0,1-1V7A1,1,0,0,0,22,6ZM3,11H7V21H3ZM9,4.78l6-1.5V21H9ZM21,21H17V8h4Z"/><circle cx="5" cy="19" r="1"/><circle cx="5" cy="16" r="1"/><circle cx="5" cy="13" r="1"/><circle cx="19" cy="19" r="1"/><circle cx="19" cy="16" r="1"/><circle cx="19" cy="13" r="1"/><circle cx="19" cy="10" r="1"/><circle cx="13" cy="19" r="1"/><circle cx="11" cy="16" r="1"/><circle cx="13" cy="13" r="1"/><circle cx="11" cy="10" r="1"/><circle cx="13" cy="7" r="1"/></g></svg>