<svg xmlns="http://www.w3.org/2000/svg" viewBox="0 0 24 24"><title>apartment city real estate home house housing</title><g id="apartment_city_real_estate_home_house_housing-2" data-name="apartment city real estate home house housing"><path d="M22.71,6.29l-5-5a1,1,0,0,0-1.42,0L12,5.59,7.71,1.29a1,1,0,0,0-1.42,0l-5,5A1,1,0,0,0,1,7V22a1,1,0,0,0,1,1H22a1,1,0,0,0,1-1V7A1,1,0,0,0,22.71,6.29ZM3,7.41l4-4,4,4V21H3ZM21,21H13V7.41l4-4,4,4Z"/><circle cx="5" cy="10" r="1"/><circle cx="9" cy="10" r="1"/><circle cx="5" cy="14" r="1"/><circle cx="9" cy="14" r="1"/><circle cx="5" cy="18" r="1"/><circle cx="9" cy="18" r="1"/><circle cx="15" cy="10" r="1"/><circle cx="19" cy="10" r="1"/><circle cx="15" cy="14" r="1"/><circle cx="19" cy="14" r="1"/><circle cx="15" cy="18" r="1"/><circle cx="19" cy="18" r="1"/></g></svg>