<svg xmlns="http://www.w3.org/2000/svg" viewBox="0 0 24 24"><title>bathtub city real estate home house housing</title><g id="bathtub_city_real_estate_home_house_housing" data-name="bathtub city real estate home house housing"><path d="M22,12H4V7A1,1,0,0,1,6,7V8A1,1,0,0,0,8,8V7A3,3,0,0,0,2,7v5a1,1,0,0,0,0,2h.08a6.94,6.94,0,0,0,1.78,3.73l-.57.56a1,1,0,0,0,1.42,1.42l.7-.71A7,7,0,0,0,9,20h6a7,7,0,0,0,3.59-1l.7.71a1,1,0,0,0,1.42-1.42l-.57-.56A6.94,6.94,0,0,0,21.92,14H22a1,1,0,0,0,0-2Zm-7,6H9a5,5,0,0,1-4.9-4H19.9A5,5,0,0,1,15,18Z"/></g></svg>