<svg xmlns="http://www.w3.org/2000/svg" viewBox="0 0 24 24"><title>big wheel city real estate home house housing</title><g id="big_wheel_city_real_estate_home_house_housing" data-name="big wheel city real estate home house housing"><path d="M21,10a1.92,1.92,0,0,0-1.16.38A8,8,0,0,0,18.68,7.6a2,2,0,0,0,1.1-.55A2,2,0,1,0,17,4.22a2,2,0,0,0-.56,1.1,7.92,7.92,0,0,0-2.77-1.16A1.92,1.92,0,0,0,14,3a2,2,0,0,0-4,0,2,2,0,0,0,.38,1.17A7.72,7.72,0,0,0,7.61,5.32a2,2,0,0,0-.56-1.1A2,2,0,0,0,4.22,7.05h0a2,2,0,0,0,1.1.55,7.84,7.84,0,0,0-1.15,2.78A2,2,0,0,0,3,10a2,2,0,0,0,0,4,2,2,0,0,0,1.17-.38A7.84,7.84,0,0,0,5.32,16.4a2,2,0,0,0-1.1.55,2,2,0,0,0,2.61,3l-.74,1.63a1,1,0,0,0,1.82.82L9.24,19.5a8.77,8.77,0,0,0,1.14.33A2,2,0,0,0,10,21a2,2,0,0,0,4,0,1.92,1.92,0,0,0-.38-1.16,10.72,10.72,0,0,0,1.14-.34l1.33,2.91a1,1,0,1,0,1.82-.82L17.17,20a2,2,0,0,0,2.61-3,2,2,0,0,0-1.1-.55,8,8,0,0,0,1.16-2.78A1.92,1.92,0,0,0,21,14a2,2,0,0,0,0-4ZM12,6a6,6,0,0,1,3.7,10.72l-2.79-6.13a1,1,0,0,0-1.82,0L8.3,16.72A6,6,0,0,1,12,6Zm0,12a5.94,5.94,0,0,1-1.94-.33L12,13.42l1.94,4.25A5.94,5.94,0,0,1,12,18Z"/></g></svg>