<svg xmlns="http://www.w3.org/2000/svg" viewBox="0 0 24 24"><title>box city real estate home house housing</title><g id="box_city_real_estate_home_house_housing" data-name="box city real estate home house housing"><path d="M22.89,8.55l-2-4A1,1,0,0,0,20,4H4a1,1,0,0,0-.89.55l-2,4A1,1,0,0,0,2,10H5v9a1,1,0,0,0,1,1H18a1,1,0,0,0,1-1V10h3A1,1,0,0,0,22.89,8.55ZM15.38,6l1,2H7.62l1-2ZM4.62,6H6.38l-1,2H3.62ZM17,18H7V10H17ZM18.62,8l-1-2h1.76l1,2Z"/><path d="M10,14h4a1,1,0,0,0,0-2H10a1,1,0,0,0,0,2Z"/></g></svg>