<svg xmlns="http://www.w3.org/2000/svg" viewBox="0 0 24 24"><title>building land city real estate home house housing</title><g id="building_land_city_real_estate_home_house_housing" data-name="building land city real estate home house housing"><path d="M22,13.88A1,1,0,0,0,21,13H19V10.41l.29.3a1,1,0,0,0,1.42-1.42l-8-8a1,1,0,0,0-1.42,0l-8,8a1,1,0,0,0,1.42,1.42l.29-.3V13H3a1,1,0,0,0-1,.88l-1,8A1,1,0,0,0,2,23H22a1,1,0,0,0,1-1.12ZM12,3.41l5,5V17H7V8.41ZM3.13,21l.75-6H5v3a1,1,0,0,0,1,1H18a1,1,0,0,0,1-1V15h1.12l.75,6Z"/></g></svg>