<svg xmlns="http://www.w3.org/2000/svg" viewBox="0 0 24 24"><title>building city real estate home house housing</title><g id="building_city_real_estate_home_house_housing" data-name="building city real estate home house housing"><path d="M10,5H2A1,1,0,0,0,1,6V22a1,1,0,0,0,1,1h8a1,1,0,0,0,1-1V6A1,1,0,0,0,10,5ZM9,21H3V7H9Z"/><path d="M22.41,5.09l-9-4A1,1,0,0,0,12,2V22a1,1,0,0,0,1,1h9a1,1,0,0,0,1-1V6A1,1,0,0,0,22.41,5.09ZM21,21H14V3.54l7,3.11Z"/><path d="M16,19h3a1,1,0,0,0,0-2H16a1,1,0,0,0,0,2Z"/><path d="M16,15h3a1,1,0,0,0,0-2H16a1,1,0,0,0,0,2Z"/><path d="M16,11h3a1,1,0,0,0,0-2H16a1,1,0,0,0,0,2Z"/><path d="M5,19H7a1,1,0,0,0,0-2H5a1,1,0,0,0,0,2Z"/><path d="M5,15H7a1,1,0,0,0,0-2H5a1,1,0,0,0,0,2Z"/><path d="M5,11H7A1,1,0,0,0,7,9H5a1,1,0,0,0,0,2Z"/></g></svg>