<svg xmlns="http://www.w3.org/2000/svg" viewBox="0 0 24 24"><title>burning city real estate home house housing</title><g id="burning_city_real_estate_home_house_housing-2" data-name="burning city real estate home house housing"><path d="M11.29,7.29C10.85,7.73,7,11.68,7,15a5,5,0,0,0,10,0c0-3.32-3.85-7.27-4.29-7.71A1,1,0,0,0,11.29,7.29ZM15,15a3,3,0,0,1-1,2.24c.24-2-1.93-4.14-2-4.24-.05.1-2.22,2.23-2,4.24A3,3,0,0,1,9,15c0-1.73,1.78-4.14,3-5.53C13.22,10.86,15,13.27,15,15Z"/><path d="M22.71,11.29l-10-10a1,1,0,0,0-1.42,0l-10,10a1,1,0,0,0,1.42,1.42L4,11.41V22a1,1,0,0,0,1,1H19a1,1,0,0,0,1-1V11.41l1.29,1.3a1,1,0,0,0,1.42-1.42ZM18,21H6V9.41l6-6,6,6Z"/></g></svg>