<svg xmlns="http://www.w3.org/2000/svg" viewBox="0 0 24 24"><title>calculator city real estate home house housing</title><g id="calculator_city_real_estate_home_house_housing" data-name="calculator city real estate home house housing"><path d="M19,1H5A1,1,0,0,0,4,2V22a1,1,0,0,0,1,1H19a1,1,0,0,0,1-1V2A1,1,0,0,0,19,1ZM18,21H6V3H18Z"/><path d="M8,10h8a1,1,0,0,0,1-1V5a1,1,0,0,0-1-1H8A1,1,0,0,0,7,5V9A1,1,0,0,0,8,10ZM9,6h6V8H9Z"/><circle cx="9" cy="13" r="1"/><circle cx="12" cy="13" r="1"/><circle cx="15" cy="13" r="1"/><circle cx="9" cy="16" r="1"/><circle cx="12" cy="16" r="1"/><circle cx="9" cy="19" r="1"/><circle cx="12" cy="19" r="1"/><path d="M15,15a1,1,0,0,0-1,1v3a1,1,0,0,0,2,0V16A1,1,0,0,0,15,15Z"/></g></svg>