<svg xmlns="http://www.w3.org/2000/svg" viewBox="0 0 24 24"><title>catalogue city real estate home house housing</title><g id="catalogue_city_real_estate_home_house_housing" data-name="catalogue city real estate home house housing"><path d="M20,1H4A1,1,0,0,0,3,2V22a1,1,0,0,0,1,1H20a1,1,0,0,0,1-1V2A1,1,0,0,0,20,1ZM19,21H5V3H19Z"/><path d="M7,13h4a1,1,0,0,0,1-1V10a1,1,0,0,0-.29-.71l-2-2a1,1,0,0,0-1.42,0l-2,2A1,1,0,0,0,6,10v2A1,1,0,0,0,7,13Zm1-2.59,1-1,1,1V11H8Z"/><path d="M7,20h4a1,1,0,0,0,1-1V17a1,1,0,0,0-.29-.71l-2-2a1,1,0,0,0-1.42,0l-2,2A1,1,0,0,0,6,17v2A1,1,0,0,0,7,20Zm1-2.59,1-1,1,1V18H8Z"/><path d="M7,6h7a1,1,0,0,0,0-2H7A1,1,0,0,0,7,6Z"/><path d="M14,8a1,1,0,0,0,0,2h1a1,1,0,0,0,0-2Z"/><path d="M13,12a1,1,0,0,0,1,1h3a1,1,0,0,0,0-2H14A1,1,0,0,0,13,12Z"/><path d="M14,17h1a1,1,0,0,0,0-2H14a1,1,0,0,0,0,2Z"/><path d="M17,18H14a1,1,0,0,0,0,2h3a1,1,0,0,0,0-2Z"/></g></svg>