<svg xmlns="http://www.w3.org/2000/svg" viewBox="0 0 24 24"><title>city real estate home house housing_3</title><g id="city_real_estate_home_house_housing" data-name="city real estate home house housing"><path d="M22.71,12.29l-10-10a1,1,0,0,0-1.42,0l-10,10A1,1,0,0,0,2,14H5v7a1,1,0,0,0,1.71.71L12,16.41l5.29,5.3A1,1,0,0,0,19,21V14h3A1,1,0,0,0,22.71,12.29ZM18,12a1,1,0,0,0-1,1v5.59l-4.29-4.3a1,1,0,0,0-1.42,0L7,18.59V13a1,1,0,0,0-1-1H4.41L12,4.41,19.59,12Z"/><circle cx="12" cy="9" r="1"/><circle cx="12" cy="21" r="1"/></g></svg>