<svg xmlns="http://www.w3.org/2000/svg" viewBox="0 0 24 24"><title>city real estate home house housing_1</title><g id="city_real_estate_home_house_housing-3" data-name="city real estate home house housing"><path d="M8.71,5.29a1,1,0,0,0-1.42,0c-.28.29-6.29,6.3-6,6a1,1,0,0,0,1.42,1.42l.29-.3V18a1,1,0,0,0,1,1h8a1,1,0,0,0,1-1V12.41l.29.3a1,1,0,0,0,1.42-1.42ZM11,17H5V10.41l3-3,3,3Z"/><path d="M23,9a4,4,0,1,0-5,3.86V18a1,1,0,0,0,2,0V12.86A4,4,0,0,0,23,9Zm-3,1.72V10a1,1,0,0,0-2,0v.72a2,2,0,1,1,2,0Z"/></g></svg>