<svg xmlns="http://www.w3.org/2000/svg" viewBox="0 0 24 24"><title>city real estate home house housing</title><g id="city_real_estate_home_house_housing-4" data-name="city real estate home house housing"><path d="M8.71,3.29a1,1,0,0,0-1.42,0l-6,6A1,1,0,0,0,1,10V20a1,1,0,0,0,1,1H14a1,1,0,0,0,1-1V10a1,1,0,0,0-.29-.71ZM13,19H3V10.41l5-5,5,5Z"/><path d="M13.71,3.29a1,1,0,0,0-1.42,1.42L17,9.41V20a1,1,0,0,0,2,0V9a1,1,0,0,0-.29-.71Z"/><path d="M22.71,7.29l-4-4a1,1,0,0,0-1.42,1.42L21,8.41V20a1,1,0,0,0,2,0V8A1,1,0,0,0,22.71,7.29Z"/></g></svg>