<svg xmlns="http://www.w3.org/2000/svg" viewBox="0 0 24 24"><title>coin city real estate home house housing</title><g id="coin_city_real_estate_home_house_housing" data-name="coin city real estate home house housing"><path d="M22.22,8A3,3,0,0,0,23,6a3,3,0,0,0-3-3H14a3,3,0,0,0-3,3,3,3,0,0,0,.78,2A3,3,0,0,0,11,10a3.05,3.05,0,0,0,.06.6,6,6,0,1,0,.2,8.62A3,3,0,0,0,14,21h6a3,3,0,0,0,3-3,3,3,0,0,0-.78-2,3,3,0,0,0,0-4,3,3,0,0,0,0-4ZM21,14a1,1,0,0,1-1,1H14a1,1,0,0,1,0-2h6A1,1,0,0,1,21,14Zm-7-3a1,1,0,0,1,0-2h6a1,1,0,0,1,0,2Zm0-6h6a1,1,0,0,1,0,2H14a1,1,0,0,1,0-2ZM7,19a4,4,0,1,1,4-4A4,4,0,0,1,7,19Zm13,0H14a1,1,0,0,1,0-2h6a1,1,0,0,1,0,2Z"/></g></svg>