<svg xmlns="http://www.w3.org/2000/svg" viewBox="0 0 24 24"><title>contract city real estate home house housing_1</title><g id="contract_city_real_estate_home_house_housing" data-name="contract city real estate home house housing"><path d="M22.71,9.29l-1-1a1,1,0,0,0-1.42,0L19,9.59V2a1,1,0,0,0-1-1H2A1,1,0,0,0,1,2V22a1,1,0,0,0,1,1H18a1,1,0,0,0,1-1V14.41l3.71-3.7A1,1,0,0,0,22.71,9.29ZM17,21H3V3H17v8.59l-4.71,4.7A1,1,0,0,0,12,17v1a1,1,0,0,0,1,1h1a1,1,0,0,0,.71-.29L17,16.41Z"/><path d="M10,17c-1.91,0-2.19-2-5-2a1,1,0,0,0,0,2c1.91,0,2.19,2,5,2a1,1,0,0,0,0-2Z"/><path d="M5,7h5a1,1,0,0,0,0-2H5A1,1,0,0,0,5,7Z"/><path d="M5,11h7a1,1,0,0,0,0-2H5a1,1,0,0,0,0,2Z"/></g></svg>