<svg xmlns="http://www.w3.org/2000/svg" viewBox="0 0 24 24"><title>contract city real estate home house housing</title><g id="contract_city_real_estate_home_house_housing-2" data-name="contract city real estate home house housing"><path d="M22,9a1,1,0,0,0,1-1V5a4,4,0,0,0-4-4H5A4,4,0,0,0,1,5V19a4,4,0,0,0,4,4H19a4,4,0,0,0,4-4V16a1,1,0,0,0-1-1H17V9ZM21,5V7H17V5a2,2,0,0,1,4,0ZM3,19V5A2,2,0,0,1,5,3H15.56A3.91,3.91,0,0,0,15,5V19a3.91,3.91,0,0,0,.56,2H5A2,2,0,0,1,3,19Zm18,0a2,2,0,0,1-4,0V17h4Z"/><path d="M11,12a3,3,0,0,0-2,5.22V19a1,1,0,0,0,.62.92,1,1,0,0,0,1.09-.21l.29-.3.29.3a1,1,0,0,0,1.09.21A1,1,0,0,0,13,19V17.22A3,3,0,0,0,11,12Zm0,2a1,1,0,1,1-1,1A1,1,0,0,1,11,14Z"/><path d="M5,7H9A1,1,0,0,0,9,5H5A1,1,0,0,0,5,7Z"/><path d="M13,9a1,1,0,0,0-1-1H5a1,1,0,0,0,0,2h7A1,1,0,0,0,13,9Z"/></g></svg>