<svg xmlns="http://www.w3.org/2000/svg" viewBox="0 0 24 24"><title>crane city real estate home house housingfff</title><g id="crane_city_real_estate_home_house_housing" data-name="crane city real estate home house housing"><path d="M22,9a1,1,0,0,0,1-1V5a1,1,0,0,0-.71-1l-10-3A1.45,1.45,0,0,0,12,1H6a1.46,1.46,0,0,0-.6.2l-4,3A1,1,0,0,0,1,5V8A1,1,0,0,0,2,9H5V22a1,1,0,0,0,1.71.71L9,20.41l2.29,2.3A1,1,0,0,0,13,22V9h6v6H18a1,1,0,0,0-1,1v4a1,1,0,0,0,1,1h4a1,1,0,0,0,1-1V16a1,1,0,0,0-1-1H21V9ZM21,19H19V17h2ZM7,15.41l2-2,2,2v.18l-2,2-2-2Zm0-2.82V11.41l.59.59ZM10.41,12l.59-.59v1.18ZM11,3V7H7V3Zm-.41,6L9,10.59,7.41,9ZM3,7V5.5L5,4V7ZM7,19.59V18.41l.59.59Zm4-1.18v1.18L10.41,19ZM13,3.34l8,2.4V7H13Z"/></g></svg>