<svg xmlns="http://www.w3.org/2000/svg" viewBox="0 0 24 24"><title>direections city real estate home house housing</title><g id="direections_city_real_estate_home_house_housing" data-name="direections city real estate home house housing"><path d="M22.71,4.29l-3-3A1,1,0,0,0,19,1H12a1,1,0,0,0-1,1V6H5a1,1,0,0,0-.71.29l-3,3A1,1,0,0,0,1,10.1a1,1,0,0,0,.45.73l3,2A1,1,0,0,0,5,13h6v8H10a1,1,0,0,0,0,2h4a1,1,0,0,0,0-2H13V8h6a1,1,0,0,0,.55-.17l3-2A1,1,0,0,0,23,5.1,1,1,0,0,0,22.71,4.29ZM5.3,11,3.57,9.84,5.41,8H11v3ZM18.7,6H13V3h5.59l1.84,1.84Z"/></g></svg>