<svg xmlns="http://www.w3.org/2000/svg" viewBox="0 0 24 24"><title>document city real estate home house housing_1</title><g id="document_city_real_estate_home_house_housing" data-name="document city real estate home house housing"><path d="M22.71,10.29l-1-1a1,1,0,0,0-1.42,0L19,10.59V2a1,1,0,0,0-1-1H8a1.14,1.14,0,0,0-.71.29l-6,6A1.09,1.09,0,0,0,1,8V22a1,1,0,0,0,1,1H18a1,1,0,0,0,1-1V15.41l3.71-3.7A1,1,0,0,0,22.71,10.29ZM7,4.41V7H4.41ZM17,21H3V9H8A1,1,0,0,0,9,8V3h8v9.59l-4.71,4.7A1,1,0,0,0,12,18v1a1,1,0,0,0,1,1h1a1,1,0,0,0,.71-.29L17,17.41Z"/><path d="M6,12H9a1,1,0,0,0,0-2c-1.68.19-4-.57-4,1A1,1,0,0,0,6,12Z"/><path d="M11,14H6a1,1,0,0,0,0,2h5a1,1,0,0,0,0-2Z"/><path d="M10,18H6a1,1,0,0,0,0,2h4a1,1,0,0,0,0-2Z"/></g></svg>