<svg xmlns="http://www.w3.org/2000/svg" viewBox="0 0 24 24"><title>document city real estate home house housing</title><g id="document_city_real_estate_home_house_housing-2" data-name="document city real estate home house housing"><path d="M20,1H10a1.14,1.14,0,0,0-.71.29l-6,6A1.13,1.13,0,0,0,3,8V22a1,1,0,0,0,1,1H20a1,1,0,0,0,1-1V2A1,1,0,0,0,20,1ZM9,4.41V7H6.41ZM19,21H5V9h5a1,1,0,0,0,1-1V3h8Z"/><path d="M8.29,12.29A1,1,0,0,0,8,13v3a1,1,0,0,0,1,1h6a1,1,0,0,0,1-1V13a1,1,0,0,0-.29-.71l-3-3a1,1,0,0,0-1.42,0ZM14,13.41V15H10V13.41l2-2Z"/><path d="M15,18H9a1,1,0,0,0,0,2h6a1,1,0,0,0,0-2Z"/></g></svg>