<svg xmlns="http://www.w3.org/2000/svg" viewBox="0 0 24 24"><title>duplex city real estate home house housing</title><g id="duplex_city_real_estate_home_house_housing" data-name="duplex city real estate home house housing"><path d="M22.71,17.29c-.1-.1-4.88-4.88-4.71-4.7V9.41l.29.3a1,1,0,0,0,1.42-1.42c-.84-.83-7.18-7.18-7-7a1,1,0,0,0-1.42,0c-.51.51-7.13,7.14-7,7A1,1,0,0,0,5.71,9.71L6,9.41v3.18l-4.71,4.7a1,1,0,0,0,1.42,1.42L4,17.41V22a1,1,0,0,0,1,1H19a1,1,0,0,0,1-1V17.41l1.29,1.3a1,1,0,0,0,1.42-1.42ZM8,7.41l4-4,4,4v3.18l-3.29-3.3a1,1,0,0,0-1.42,0L8,10.59ZM18,21H6V15.41l6-6,6,6Z"/></g></svg>