<svg xmlns="http://www.w3.org/2000/svg" viewBox="0 0 24 24"><title>elevator city real estate home house housing</title><g id="elevator_city_real_estate_home_house_housing" data-name="elevator city real estate home house housing"><path d="M22,3H2A1,1,0,0,0,1,4V20a1,1,0,0,0,1,1H22a1,1,0,0,0,1-1V4A1,1,0,0,0,22,3ZM8,19H6V9H8Zm2,0V9h3V19Zm11,0H15V8a1,1,0,0,0-1-1H5A1,1,0,0,0,4,8V19H3V5H21Z"/><path d="M17.71,12.71l.29-.3.29.3a1,1,0,0,0,1.42-1.42l-1-1a1,1,0,0,0-1.42,0l-1,1a1,1,0,0,0,1.42,1.42Z"/><path d="M17.29,17.71a1,1,0,0,0,1.42,0l1-1a1,1,0,0,0-1.42-1.42l-.29.3-.29-.3a1,1,0,0,0-1.42,1.42Z"/></g></svg>