<svg xmlns="http://www.w3.org/2000/svg" viewBox="0 0 24 24"><title>energy city real estate home house housing</title><g id="energy_city_real_estate_home_house_housing" data-name="energy city real estate home house housing"><path d="M22.71,11.29l-10-10a1,1,0,0,0-1.42,0l-10,10A1,1,0,0,0,1,12V23a1,1,0,0,0,1,1H22a1,1,0,0,0,1-1V12A1,1,0,0,0,22.71,11.29ZM21,22H3V12.41l9-9,9,9Z"/><path d="M10,15h1.92l-2.7,3.38a1,1,0,1,0,1.56,1.24l4-5A1,1,0,0,0,14,13H12.08l2.7-3.38a1,1,0,0,0-1.56-1.24l-4,5A1,1,0,0,0,10,15Z"/></g></svg>