<svg xmlns="http://www.w3.org/2000/svg" viewBox="0 0 24 24"><title>engineer city real estate home house housing</title><g id="engineer_city_real_estate_home_house_housing" data-name="engineer city real estate home house housing"><path d="M15.3,14.72A4.92,4.92,0,0,0,17,11a4.79,4.79,0,0,0-.11-1H18a1,1,0,0,0,0-2V7a4,4,0,0,0-3-3.86V2a1,1,0,0,0-1-1H10A1,1,0,0,0,9,2V3.14A4,4,0,0,0,6,7V8a1,1,0,0,0,0,2H7.11A4.79,4.79,0,0,0,7,11a4.92,4.92,0,0,0,1.7,3.72A8,8,0,0,0,4,22a1,1,0,0,0,2,0,6,6,0,0,1,12,0,1,1,0,0,0,2,0A8,8,0,0,0,15.3,14.72ZM8,7A2,2,0,0,1,9,5.28V6a1,1,0,0,0,2,0V3h2V6a1,1,0,0,0,2,0V5.28A2,2,0,0,1,16,7V8H8Zm1,4a3.11,3.11,0,0,1,.19-1h5.62A3.11,3.11,0,0,1,15,11a3,3,0,0,1-6,0Z"/></g></svg>