<svg xmlns="http://www.w3.org/2000/svg" viewBox="0 0 24 24"><title>fence city real estate home house housing</title><g id="fence_city_real_estate_home_house_housing" data-name="fence city real estate home house housing"><path d="M22.71,4.29l-2-2a1,1,0,0,0-1.42,0l-2,2A1,1,0,0,0,17,5V8H15V5a1,1,0,0,0-.29-.71l-2-2a1,1,0,0,0-1.42,0l-2,2A1,1,0,0,0,9,5V8H7V5a1,1,0,0,0-.29-.71l-2-2a1,1,0,0,0-1.42,0l-2,2A1,1,0,0,0,1,5V21a1,1,0,0,0,1,1H6a1,1,0,0,0,1-1V18H9v3a1,1,0,0,0,1,1h4a1,1,0,0,0,1-1V18h2v3a1,1,0,0,0,1,1h4a1,1,0,0,0,1-1V5A1,1,0,0,0,22.71,4.29ZM5,20H3V5.41l1-1,1,1Zm2-4V10H9v6Zm6,4H11V5.41l1-1,1,1Zm2-4V10h2v6Zm6,4H19V5.41l1-1,1,1Z"/></g></svg>