<svg xmlns="http://www.w3.org/2000/svg" viewBox="0 0 24 24"><title>garage city real estate home house housing</title><g id="garage_city_real_estate_home_house_housing-2" data-name="garage city real estate home house housing"><path d="M22,1H2A1,1,0,0,0,1,2V22a1,1,0,0,0,1,1H5a1,1,0,0,0,1-1V21H18v1a1,1,0,0,0,1,1h3a1,1,0,0,0,1-1V2A1,1,0,0,0,22,1ZM6,19V6H18V19Zm15,2H20V5a1,1,0,0,0-1-1H5A1,1,0,0,0,4,5V21H3V3H21Z"/><path d="M16,13H8a1,1,0,0,0,0,2h8a1,1,0,0,0,0-2Z"/><path d="M16,16H8a1,1,0,0,0,0,2h8a1,1,0,0,0,0-2Z"/><path d="M16,10H8a1,1,0,0,0,0,2h8a1,1,0,0,0,0-2Z"/><path d="M16,7H8A1,1,0,0,0,8,9h8a1,1,0,0,0,0-2Z"/></g></svg>