<svg xmlns="http://www.w3.org/2000/svg" viewBox="0 0 24 24"><title>garage city real estate home house housing_1</title><g id="garage_city_real_estate_home_house_housing" data-name="garage city real estate home house housing"><path d="M22.71,11.29l-10-10a1,1,0,0,0-1.42,0l-10,10a1,1,0,0,0,1.42,1.42L12,3.41l9.29,9.3a1,1,0,0,0,1.42-1.42Z"/><path d="M20,14H18.68L16.93,9.63A1,1,0,0,0,16,9H8a1,1,0,0,0-.93.63L5.32,14H4a1,1,0,0,0-1,1v5a1,1,0,0,0,1,1H6v1a1,1,0,0,0,1,1H9a1,1,0,0,0,1-1V21h4v1a1,1,0,0,0,1,1h2a1,1,0,0,0,1-1V21h2a1,1,0,0,0,1-1V15A1,1,0,0,0,20,14ZM8.68,11h6.64l1.2,3h-9ZM19,19H5V16H19Z"/></g></svg>