<svg xmlns="http://www.w3.org/2000/svg" viewBox="0 0 24 24"><title>gavel city real estate home house housing</title><g id="gavel_city_real_estate_home_house_housing" data-name="gavel city real estate home house housing"><path d="M23,7H10V6a1,1,0,0,0,1-1V2a1,1,0,0,0-1-1H2A1,1,0,0,0,1,2V5A1,1,0,0,0,2,6v8a1,1,0,0,0-1,1v3a1,1,0,0,0,1,1h8a1,1,0,0,0,1-1V15a1,1,0,0,0-1-1V13H23a1,1,0,0,0,1-1V8A1,1,0,0,0,23,7ZM3,3H9V4H3ZM9,17H3V16H9ZM4,14V6H8v8Zm18-3H10V9H22Z"/><path d="M10,21H2a1,1,0,0,0,0,2h8a1,1,0,0,0,0-2Z"/></g></svg>