<svg xmlns="http://www.w3.org/2000/svg" viewBox="0 0 24 24"><title>global positioning city real estate home house housing</title><g id="global_positioning_city_real_estate_home_house_housing" data-name="global positioning city real estate home house housing"><path d="M22,3H20.82a3,3,0,0,0-5.64,0H2A1,1,0,0,0,1,4V22a1,1,0,0,0,1,1H22a1,1,0,0,0,1-1V4A1,1,0,0,0,22,3ZM18,3a1,1,0,0,1,1,1,4.64,4.64,0,0,1-1,2.44A4.64,4.64,0,0,1,17,4,1,1,0,0,1,18,3ZM15.13,5A8.23,8.23,0,0,0,17,8.39V12H14.36L8.64,7.23A1,1,0,0,0,8,7H3V5ZM21,21H3V18H4a1,1,0,0,0,0-2H3V9H7.64L13,13.47V16a1,1,0,0,0,0,2h1a1,1,0,0,0,1-1V14h3a1,1,0,0,0,1-1V8.39A8.23,8.23,0,0,0,20.87,5H21Z"/><path d="M10.45,16.11l-4-2a1,1,0,0,0-1.34,1.34L5.88,17l-.77,1.55a1,1,0,0,0,1.34,1.34l4-2A1,1,0,0,0,10.45,16.11Z"/></g></svg>