<svg xmlns="http://www.w3.org/2000/svg" viewBox="0 0 24 24"><title>gym city real estate home house housing</title><g id="gym_city_real_estate_home_house_housing" data-name="gym city real estate home house housing"><path d="M22,9H20V8a1,1,0,0,0-1-1H15a1,1,0,0,0-1,1v3H10V8A1,1,0,0,0,9,7H5A1,1,0,0,0,4,8V9H2a1,1,0,0,0-1,1v4a1,1,0,0,0,1,1H4v1a1,1,0,0,0,1,1H9a1,1,0,0,0,1-1V13h4v3a1,1,0,0,0,1,1h4a1,1,0,0,0,1-1V15h2a1,1,0,0,0,1-1V10A1,1,0,0,0,22,9ZM3,13V11H4v2Zm5,2H6V9H8Zm10,0H16V9h2Zm3-2H20V11h1Z"/></g></svg>