<svg xmlns="http://www.w3.org/2000/svg" viewBox="0 0 24 24"><title>handyman tools city real estate home house housing</title><g id="handyman_tools_city_real_estate_home_house_housing" data-name="handyman tools city real estate home house housing"><path d="M23,10.78l-2-9A1,1,0,0,0,20,1H16a1,1,0,0,0-1,1V7.5L12,9.75,9,7.5V2A1,1,0,0,0,8,1H4a1,1,0,0,0-1,.78l-2,9a1,1,0,0,0,.27.93L6,16.41V22a1,1,0,0,0,1,1H17a1,1,0,0,0,1-1V16.41l4.71-4.7A1,1,0,0,0,23,10.78Zm-6.69,4.51A1,1,0,0,0,16,16v5H8V16a1,1,0,0,0-.29-.71L3.1,10.68,4.8,3H7V8a1,1,0,0,0,.4.8l4,3a1,1,0,0,0,1.2,0l4-3A1,1,0,0,0,17,8V3h2.2l1.7,7.68Z"/></g></svg>