<svg xmlns="http://www.w3.org/2000/svg" viewBox="0 0 24 24"><title>information city real estate home house housing</title><g id="information_city_real_estate_home_house_housing-2" data-name="information city real estate home house housing"><path d="M22.71,11.29l-10-10a1,1,0,0,0-1.42,0l-10,10a1,1,0,0,0,1.42,1.42L4,11.41V22a1,1,0,0,0,1,1H19a1,1,0,0,0,1-1V11.41l1.29,1.3a1,1,0,0,0,1.42-1.42ZM18,21H6V9.41l6-6,6,6Z"/><path d="M13,13a1,1,0,0,0-1-1H11a1,1,0,0,0,0,2v3a1,1,0,0,0,0,2h2a1,1,0,0,0,0-2Z"/><circle cx="12" cy="10" r="1"/></g></svg>