<svg xmlns="http://www.w3.org/2000/svg" viewBox="0 0 24 24"><title>information city real estate home house housing_1</title><g id="information_city_real_estate_home_house_housing" data-name="information city real estate home house housing"><path d="M22.71,11.29l-10-10a1,1,0,0,0-1.42,0l-10,10A1,1,0,0,0,1,12V22a1,1,0,0,0,1,1H22a1,1,0,0,0,1-1V12A1,1,0,0,0,22.71,11.29ZM21,21H3V12.41l9-9,9,9Z"/><path d="M13,13a1,1,0,0,0-1-1H11a1,1,0,0,0,0,2v3a1,1,0,0,0,0,2h2a1,1,0,0,0,0-2Z"/><circle cx="12" cy="10" r="1"/></g></svg>