<svg xmlns="http://www.w3.org/2000/svg" viewBox="0 0 24 24"><title>investment city real estate home house housing</title><g id="investment_city_real_estate_home_house_housing" data-name="investment city real estate home house housing"><path d="M7.71,8.29a1,1,0,0,0-1.42,0c-.13.14-4.13,4.13-4,4a1,1,0,0,0,1.42,1.42l.29-.3V22a1,1,0,0,0,1,1H9a1,1,0,0,0,1-1V13.41l.29.3a1,1,0,0,0,1.42-1.42C11.57,12.16,7.58,8.16,7.71,8.29ZM8,21H6V11.41l1-1,1,1Z"/><path d="M21.71,5.29c-.14-.13-4.13-4.13-4-4a1,1,0,0,0-1.42,0c-.13.14-4.13,4.13-4,4a1,1,0,0,0,1.42,1.42l.29-.3V22a1,1,0,0,0,1,1h4a1,1,0,0,0,1-1V6.41l.29.3a1,1,0,0,0,1.42-1.42ZM18,21H16V4.41l1-1,1,1Z"/></g></svg>