<svg xmlns="http://www.w3.org/2000/svg" viewBox="0 0 24 24"><title>justice hammer city real estate home house housing</title><g id="justice_hammer_city_real_estate_home_house_housing" data-name="justice hammer city real estate home house housing"><path d="M22.71,16.29,15.41,9l2.3-2.29a1,1,0,0,0,0-1.42l-4-4a1,1,0,0,0-1.42,0l-7,7a1,1,0,0,0,0,1.42l4,4a1,1,0,0,0,1.42,0L13,11.41l7.29,7.3a1,1,0,0,0,1.42,0l1-1A1,1,0,0,0,22.71,16.29ZM10,11.59,7.41,9,13,3.41,15.59,6C15.45,6.13,9.67,11.91,10,11.59Z"/><path d="M12,18H11V16a1,1,0,0,0-1-1H4a1,1,0,0,0-1,1v2H2a1,1,0,0,0-1,1v3a1,1,0,0,0,1,1H12a1,1,0,0,0,1-1V19A1,1,0,0,0,12,18ZM5,17H9v1H5Zm6,4H3V20h8Z"/></g></svg>