<svg xmlns="http://www.w3.org/2000/svg" viewBox="0 0 24 24"><title>key city real estate home house housing</title><g id="key_city_real_estate_home_house_housing-3" data-name="key city real estate home house housing"><path d="M22.71,11.29l-10-10a1,1,0,0,0-1.42,0l-10,10a1,1,0,0,0,1.42,1.42L4,11.41V22a1,1,0,0,0,1,1H19a1,1,0,0,0,1-1V18.82a3,3,0,0,0,0-5.64V11.41l1.29,1.3a1,1,0,0,0,1.42-1.42ZM19,17a1,1,0,1,1,1-1A1,1,0,0,1,19,17Zm-1-3.82A3,3,0,0,0,16.18,15H9a1,1,0,0,0-1,1v2a1,1,0,0,0,2,0V17h1v1a1,1,0,0,0,2,0V17h3.18A3,3,0,0,0,18,18.82V21H6V9.41l6-6,6,6Z"/></g></svg>