<svg xmlns="http://www.w3.org/2000/svg" viewBox="0 0 24 24"><title>key city real estate home house housing_2</title><g id="key_city_real_estate_home_house_housing" data-name="key city real estate home house housing"><path d="M6,14a1,1,0,0,0-1,1v2a1,1,0,0,0,2,0V16H8v1a1,1,0,0,0,2,0V16h3.18a3,3,0,1,0,0-2Zm10,0a1,1,0,1,1-1,1A1,1,0,0,1,16,14Z"/><path d="M22.71,11.29l-10-10a1,1,0,0,0-1.42,0l-10,10A1,1,0,0,0,1,12V22a1,1,0,0,0,1,1H22a1,1,0,0,0,1-1V12A1,1,0,0,0,22.71,11.29ZM21,21H3V12.41l9-9,9,9Z"/></g></svg>