<svg xmlns="http://www.w3.org/2000/svg" viewBox="0 0 24 24"><title>landscape city real estate home house housing</title><g id="landscape_city_real_estate_home_house_housing" data-name="landscape city real estate home house housing"><path d="M22,11a28.5,28.5,0,0,0-3.51.24,6.49,6.49,0,0,0-13-.05A29.92,29.92,0,0,0,2,11a1,1,0,0,0-1,1V22H1a1,1,0,0,0,1,1H22a1,1,0,0,0,1-1V12A1,1,0,0,0,22,11ZM12,7a4.51,4.51,0,0,1,4.5,4.5s0,0,0,.06A28.34,28.34,0,0,0,12,12.85,26.78,26.78,0,0,0,7.5,11.5,4.51,4.51,0,0,1,12,7ZM3,13a22.82,22.82,0,0,1,6.31,1A22.06,22.06,0,0,0,3,18.86Zm18,8H3.85C7.62,15.93,14.71,13.28,21,13Z"/><path d="M12,4a1,1,0,0,0,1-1V2a1,1,0,0,0-2,0V3A1,1,0,0,0,12,4Z"/><path d="M19.07,6.34l.71-.7a1,1,0,1,0-1.42-1.42l-.7.71a1,1,0,0,0,1.41,1.41Z"/><path d="M4.93,6.34A1,1,0,0,0,6.34,4.93l-.7-.71A1,1,0,0,0,4.22,5.64Z"/></g></svg>