<svg xmlns="http://www.w3.org/2000/svg" viewBox="0 0 24 24"><title>laptop city real estate home house housing</title><g id="laptop_city_real_estate_home_house_housing" data-name="laptop city real estate home house housing"><path d="M12.71,6.29a1,1,0,0,0-1.42,0c-.13.14-4.13,4.13-4,4a1,1,0,1,0,1.42,1.42l.29-.3V14a1,1,0,0,0,1,1h4a1,1,0,0,0,1-1V11.41l.29.3a1,1,0,0,0,1.42-1.42C16.57,10.16,12.58,6.16,12.71,6.29ZM13,13H11V9.41l1-1,1,1Z"/><path d="M22,16H21V4a1,1,0,0,0-1-1H4A1,1,0,0,0,3,4V16H2a1,1,0,0,0-1,1v3a1,1,0,0,0,1,1H22a1,1,0,0,0,1-1V17A1,1,0,0,0,22,16ZM5,5H19V16H5ZM21,19H3V18H21Z"/></g></svg>