<svg xmlns="http://www.w3.org/2000/svg" viewBox="0 0 24 24"><title>leaf city real estate home house housing</title><g id="leaf_city_real_estate_home_house_housing" data-name="leaf city real estate home house housing"><path d="M7,14a5,5,0,0,0,4,4.9V19a1,1,0,0,0,2,0v-.1A5,5,0,0,0,17,14c0-3.4-3.25-7-5-7C9.43,7,7,10.4,7,14Zm8,0a3,3,0,0,1-2,2.82V15a1,1,0,0,0-2,0v1.82A3,3,0,0,1,9,14c0-2.58,1.69-5,2.92-5A6.74,6.74,0,0,1,15,14Z"/><path d="M22.71,11.29l-10-10a1,1,0,0,0-1.42,0l-10,10A1,1,0,0,0,1,12V22a1,1,0,0,0,1,1H22a1,1,0,0,0,1-1V12A1,1,0,0,0,22.71,11.29ZM21,21H3V12.41l9-9,9,9Z"/></g></svg>