<svg xmlns="http://www.w3.org/2000/svg" viewBox="0 0 24 24"><title>light house city real estate home housing</title><g id="light_house_city_real_estate_home_housing" data-name="light house city real estate home housing"><path d="M17,7a1,1,0,0,0,.62-1.78l-5-4a1,1,0,0,0-1.24,0l-5,4A1,1,0,0,0,7,7V9.92L5,21.84A1,1,0,0,0,6,23H18a1,1,0,0,0,1-1.16L17,9.92ZM12,3.28,14.15,5H9.85ZM15,7V9H9V7ZM11,21V19h2v2Zm4,0V18a1,1,0,0,0-1-1H10a1,1,0,0,0-1,1v3H7.18L8.85,11h6.3l1.67,10Z"/><path d="M12,12a1,1,0,0,0-1,1v1a1,1,0,0,0,2,0V13A1,1,0,0,0,12,12Z"/><path d="M20.71,5.71l1-1a1,1,0,1,0-1.42-1.42l-1,1a1,1,0,0,0,1.42,1.42Z"/><path d="M20.71,10.29a1,1,0,0,0-1.42,1.42l1,1a1,1,0,0,0,1.42-1.42Z"/><path d="M22,7H21a1,1,0,0,0,0,2h1a1,1,0,0,0,0-2Z"/><path d="M3.71,3.29A1,1,0,0,0,2.29,4.71l1,1A1,1,0,0,0,4.71,4.29Z"/><path d="M3.29,10.29l-1,1a1,1,0,0,0,1.42,1.42l1-1a1,1,0,0,0-1.42-1.42Z"/><path d="M3,9A1,1,0,0,0,3,7H2A1,1,0,0,0,2,9Z"/></g></svg>