<svg xmlns="http://www.w3.org/2000/svg" viewBox="0 0 24 24"><title>location city real estate home house housing</title><g id="location_city_real_estate_home_house_housing-3" data-name="location city real estate home house housing"><path d="M16.71,9.29c-.14-.13-4.13-4.13-4-4a1,1,0,0,0-1.42,0c-.13.14-4.13,4.13-4,4a1,1,0,1,0,1.42,1.42l.29-.3V13a1,1,0,0,0,1,1h4a1,1,0,0,0,1-1V10.41l.29.3a1,1,0,0,0,1.42-1.42ZM13,12H11V8.41l1-1,1,1Z"/><path d="M12,1a9,9,0,0,0-9,9c0,7.47,8.12,12.63,8.47,12.85a1,1,0,0,0,1.06,0C12.88,22.63,21,17.47,21,10A9,9,0,0,0,12,1Zm0,19.79C10.28,19.57,5,15.36,5,10a7,7,0,0,1,14,0C19,15.35,13.71,19.56,12,20.79Z"/></g></svg>