<svg xmlns="http://www.w3.org/2000/svg" viewBox="0 0 24 24"><title>location city real estate home house housing_1</title><g id="location_city_real_estate_home_house_housing-2" data-name="location city real estate home house housing"><path d="M21,11.8a1,1,0,0,0-1-.8H18.23A7.25,7.25,0,0,0,19,8,7,7,0,0,0,5,8a7.25,7.25,0,0,0,.77,3H4a1,1,0,0,0-1,.8l-2,10A1,1,0,0,0,2,23H22a1,1,0,0,0,1-1.2ZM12,3a5,5,0,0,1,5,5c0,2.55-3.18,6-5,7.67C10.18,14,7,10.55,7,8A5,5,0,0,1,12,3ZM3.22,21l1.6-8H6.94a26.75,26.75,0,0,0,4.42,4.77,1,1,0,0,0,1.28,0A26.75,26.75,0,0,0,17.06,13h2.12l1.6,8Z"/><path d="M12,6a2,2,0,0,0,0,4A2,2,0,0,0,12,6Z"/></g></svg>