<svg xmlns="http://www.w3.org/2000/svg" viewBox="0 0 24 24"><title>love city real estate home house housing</title><g id="love_city_real_estate_home_house_housing" data-name="love city real estate home house housing"><path d="M22.71,11.29l-10-10a1,1,0,0,0-1.42,0l-10,10a1,1,0,0,0,1.42,1.42L4,11.41V22a1,1,0,0,0,1,1H19a1,1,0,0,0,1-1V11.41l1.29,1.3a1,1,0,0,0,1.42-1.42ZM18,21H6V9.41l6-6,6,6Z"/><path d="M7.85,10.9a3.09,3.09,0,0,0,0,4.37l3.44,3.44a1,1,0,0,0,1.42,0l3.44-3.44a3.1,3.1,0,0,0,0-4.37A3.17,3.17,0,0,0,12,10.71,3.17,3.17,0,0,0,7.85,10.9Zm5.35,1.42a1.11,1.11,0,0,1,1.53,0,1.07,1.07,0,0,1,0,1.53h0L12,16.59,9.27,13.85a1.08,1.08,0,0,1,1.53-1.53l.49.49a1,1,0,0,0,1.42,0Z"/></g></svg>