<svg xmlns="http://www.w3.org/2000/svg" viewBox="0 0 24 24"><title>mansion city real estate home house housing</title><g id="mansion_city_real_estate_home_house_housing" data-name="mansion city real estate home house housing"><path d="M22.71,8.29l-3-3A1,1,0,0,0,19,5H14.41l-1.7-1.71a1,1,0,0,0-1.42,0L9.59,5H5a1,1,0,0,0-.71.29l-3,3A1,1,0,0,0,2,10V20a1,1,0,0,0,1,1H21a1,1,0,0,0,1-1V10A1,1,0,0,0,22.71,8.29ZM18.59,7l1,1H17.41l-1-1ZM12,5.41l3,3V19H9V8.41ZM5.41,7H7.59l-1,1H4.41ZM4,10H5a1,1,0,0,0,.29.71,1,1,0,0,0,1.42,0l.29-.3V19H4Zm16,9H17V10.41l.29.3a1,1,0,0,0,1.42,0A1,1,0,0,0,19,10h1Z"/><circle cx="12" cy="9" r="1"/></g></svg>