<svg xmlns="http://www.w3.org/2000/svg" viewBox="0 0 24 24"><title>mortgage city real estate home house housing</title><g id="mortgage_city_real_estate_home_house_housing" data-name="mortgage city real estate home house housing"><path d="M22.71,11.29l-10-10a1,1,0,0,0-1.42,0l-10,10A1,1,0,0,0,1,12V22a1,1,0,0,0,1,1H22a1,1,0,0,0,1-1V12A1,1,0,0,0,22.71,11.29ZM21,21H3V12.41l9-9,9,9Z"/><path d="M8.29,18.71a1,1,0,0,0,1.42,0l6-6a1,1,0,0,0-1.42-1.42l-6,6A1,1,0,0,0,8.29,18.71Z"/><circle cx="9" cy="12" r="1"/><circle cx="15" cy="18" r="1"/></g></svg>