<svg xmlns="http://www.w3.org/2000/svg" viewBox="0 0 24 24"><title>martgage city real estate home house housing</title><g id="martgage_city_real_estate_home_house_housing" data-name="martgage city real estate home house housing"><path d="M13.71,6.71l.29-.3V9a1,1,0,0,0,1,1h4a1,1,0,0,0,1-1V6.41l.29.3a1,1,0,0,0,1.42-1.42c-.14-.13-4.13-4.13-4-4a1,1,0,0,0-1.42,0c-.13.14-4.13,4.13-4,4a1,1,0,0,0,1.42,1.42ZM17,3.41l1,1V8H16V4.41Z"/><path d="M23,16.76l-1-4a1,1,0,0,0-1.5-.61l-4.33,2.71L12.6,12.2A1,1,0,0,0,12,12H2a1,1,0,0,0,0,2h9.67l2.65,2-1.3.82-2.47-1.64a1,1,0,0,0-1.1,1.66l3,2a1,1,0,0,0,1.08,0l6.83-4.27.5,2L14.68,21h-2.4L7.51,18.14A1,1,0,0,0,7,18H2a1,1,0,0,0,0,2H6.72l4.77,2.86A1,1,0,0,0,12,23h3a.94.94,0,0,0,.58-.19l7-5A1,1,0,0,0,23,16.76Z"/></g></svg>