<svg xmlns="http://www.w3.org/2000/svg" viewBox="0 0 24 24"><title>ocean wave city real estate home house housing</title><g id="ocean_wave_city_real_estate_home_house_housing" data-name="ocean wave city real estate home house housing"><path d="M2,7a4.66,4.66,0,0,1,2.82.86,7,7,0,0,0,7.69,0,5,5,0,0,1,5.64,0A6.65,6.65,0,0,0,22,9a1,1,0,0,0,0-2,4.66,4.66,0,0,1-2.82-.86,7,7,0,0,0-7.7,0,5,5,0,0,1-5.63,0A6.68,6.68,0,0,0,2,5,1,1,0,0,0,2,7Z"/><path d="M22,12a4.66,4.66,0,0,1-2.82-.86,7,7,0,0,0-7.7,0,5,5,0,0,1-5.63,0A6.68,6.68,0,0,0,2,10a1,1,0,0,0,0,2,4.66,4.66,0,0,1,2.82.86,7,7,0,0,0,7.69,0,5,5,0,0,1,5.64,0A6.65,6.65,0,0,0,22,14a1,1,0,0,0,0-2Z"/><path d="M22,17a4.66,4.66,0,0,1-2.82-.86,7,7,0,0,0-7.7,0,5,5,0,0,1-5.63,0A6.68,6.68,0,0,0,2,15a1,1,0,0,0,0,2,4.66,4.66,0,0,1,2.82.86,7,7,0,0,0,7.69,0,5,5,0,0,1,5.64,0A6.65,6.65,0,0,0,22,19a1,1,0,0,0,0-2Z"/></g></svg>