<svg xmlns="http://www.w3.org/2000/svg" viewBox="0 0 24 24"><title>padlock city real estate home house housing</title><g id="padlock_city_real_estate_home_house_housing-2" data-name="padlock city real estate home house housing"><path d="M22.71,11.29l-10-10a1,1,0,0,0-1.42,0l-10,10a1,1,0,0,0,1.42,1.42L4,11.41V22a1,1,0,0,0,1,1H19a1,1,0,0,0,1-1V11.41l1.29,1.3a1,1,0,0,0,1.42-1.42ZM18,21H6V9.41l6-6,6,6Z"/><path d="M9,12v1a1,1,0,0,0-1,1v4a1,1,0,0,0,1,1h6a1,1,0,0,0,1-1V14a1,1,0,0,0-1-1V12a3,3,0,0,0-6,0Zm5,5H10V15h4Zm-1-5v1H11V12a1,1,0,0,1,2,0Z"/></g></svg>