<svg xmlns="http://www.w3.org/2000/svg" viewBox="0 0 24 24"><title>padlock city real estate home house housing_1</title><g id="padlock_city_real_estate_home_house_housing" data-name="padlock city real estate home house housing"><path d="M22.71,11.29l-10-10a1,1,0,0,0-1.42,0l-10,10A1,1,0,0,0,1,12V22a1,1,0,0,0,1,1H22a1,1,0,0,0,1-1V12A1,1,0,0,0,22.71,11.29ZM21,21H3V12.41l9-9,9,9Z"/><path d="M9,12v1a1,1,0,0,0-1,1v4a1,1,0,0,0,1,1h6a1,1,0,0,0,1-1V14a1,1,0,0,0-1-1V12a3,3,0,0,0-6,0Zm5,5H10V15h4Zm-1-5v1H11V12a1,1,0,0,1,2,0Z"/></g></svg>