<svg xmlns="http://www.w3.org/2000/svg" viewBox="0 0 24 24"><title>park city real estate home house housing</title><g id="park_city_real_estate_home_house_housing" data-name="park city real estate home house housing"><path d="M8.29,14.29,7,15.59V12.9a5,5,0,1,0-2,0v1.48l-.55-.27a1,1,0,0,0-.9,1.78L5,16.62V20a1,1,0,0,0,2,0V18.41l2.71-2.7a1,1,0,0,0-1.42-1.42ZM3,8a3,3,0,1,1,3,3A3,3,0,0,1,3,8Z"/><path d="M14,15h6a1,1,0,0,0,0-2H14a1,1,0,0,0,0,2Z"/><path d="M22,16H12a1,1,0,0,0,0,2h.61l-.56,1.68a1,1,0,0,0,1.9.64L14.72,18h4.56l.77,2.32a1,1,0,0,0,1.9-.64L21.39,18H22a1,1,0,0,0,0-2Z"/></g></svg>