<svg xmlns="http://www.w3.org/2000/svg" viewBox="0 0 24 24"><title>placeholder city real estate home house housing</title><g id="placeholder_city_real_estate_home_house_housing" data-name="placeholder city real estate home house housing"><path d="M19.71,8.29l-7-7a1,1,0,0,0-1.42,0l-7,7A1,1,0,0,0,4,9v7a1,1,0,0,0,1,1H7.12c.64,3,3.87,5.5,4.28,5.8a1,1,0,0,0,1.2,0C13,22.5,16.24,20,16.88,17H19a1,1,0,0,0,1-1V9A1,1,0,0,0,19.71,8.29ZM12,20.71c-1.18-1-3-3-3-4.71a3,3,0,0,1,6,0C15,17.71,13.18,19.67,12,20.71ZM18,15H16.9a5,5,0,0,0-9.8,0H6V9.41l6-6,6,6Z"/><circle cx="12" cy="16" r="1"/></g></svg>