<svg xmlns="http://www.w3.org/2000/svg" viewBox="0 0 24 24"><title>plane city real estate home house housing</title><g id="plane_city_real_estate_home_house_housing" data-name="plane city real estate home house housing"><path d="M22,16V2a1,1,0,0,0-1-1H3A1,1,0,0,0,2,2V22a1,1,0,0,0,1,1H15a1,1,0,0,0,.71-.29l6-6A1.13,1.13,0,0,0,22,16ZM4,3H20V15H15a1,1,0,0,0-1,1v5H4ZM16,19.59V17h2.59Z"/><path d="M18,14a1,1,0,0,0,1-1V5a1,1,0,0,0-1-1H6A1,1,0,0,0,5,5v8a1,1,0,0,0,2,0V6H17V8H15a1,1,0,0,0-2,0H11A1,1,0,0,0,9,8v2a1,1,0,0,0,2,0h2a1,1,0,0,0,2,0h2v2H10a1,1,0,0,0,0,2Z"/></g></svg>