<svg xmlns="http://www.w3.org/2000/svg" viewBox="0 0 24 24"><title>price city real estate home house housing</title><g id="price_city_real_estate_home_house_housing-2" data-name="price city real estate home house housing"><path d="M22.71,11.29l-10-10a1,1,0,0,0-1.42,0l-10,10a1,1,0,0,0,1.42,1.42L4,11.41V22a1,1,0,0,0,1,1H19a1,1,0,0,0,1-1V11.41l1.29,1.3a1,1,0,0,0,1.42-1.42ZM18,21H6V9.41l6-6,6,6Z"/><path d="M11,10v.05A2.5,2.5,0,0,0,11.5,15h1a.5.5,0,0,1,0,1H10a1,1,0,0,0,0,2h1a1,1,0,0,0,2,0V18A2.5,2.5,0,0,0,12.5,13h-1a.5.5,0,0,1,0-1H14a1,1,0,0,0,0-2H13a1,1,0,0,0-2,0Z"/></g></svg>