<svg xmlns="http://www.w3.org/2000/svg" viewBox="0 0 24 24"><title>price city real estate home house housing_1</title><g id="price_city_real_estate_home_house_housing" data-name="price city real estate home house housing"><path d="M22.71,11.29l-10-10a1,1,0,0,0-1.42,0l-10,10A1,1,0,0,0,1,12V22a1,1,0,0,0,1,1H22a1,1,0,0,0,1-1V12A1,1,0,0,0,22.71,11.29ZM21,21H3V12.41l9-9,9,9Z"/><path d="M11,10v.05A2.5,2.5,0,0,0,11.5,15h1a.5.5,0,0,1,0,1H10a1,1,0,0,0,0,2h1a1,1,0,0,0,2,0V18A2.5,2.5,0,0,0,12.5,13h-1a.5.5,0,0,1,0-1H14a1,1,0,0,0,0-2H13a1,1,0,0,0-2,0Z"/></g></svg>