<svg xmlns="http://www.w3.org/2000/svg" viewBox="0 0 24 24"><title>prize city real estate home house housing</title><g id="prize_city_real_estate_home_house_housing" data-name="prize city real estate home house housing"><path d="M16.71,9.29c-.14-.13-4.13-4.13-4-4a1,1,0,0,0-1.42,0c-.13.14-4.13,4.13-4,4a1,1,0,1,0,1.42,1.42l.29-.3V13a1,1,0,0,0,1,1h4a1,1,0,0,0,1-1V10.41l.29.3a1,1,0,0,0,1.42-1.42ZM13,12H11V8.41l1-1,1,1Z"/><path d="M22.71,18.29,19.45,15A8.91,8.91,0,0,0,21,10,9,9,0,0,0,3,10a8.91,8.91,0,0,0,1.55,5L1.29,18.29a1,1,0,0,0,.26,1.6l1.7.86.86,1.7a1,1,0,0,0,1.6.26l4-4v0A8.59,8.59,0,0,0,12,19a9,9,0,0,0,2.28-.3l4,4a1,1,0,0,0,1.6-.26l.86-1.7,1.7-.86A1,1,0,0,0,22.71,18.29Zm-17.44,2-.38-.76a.94.94,0,0,0-.44-.44l-.76-.38,2.17-2.17A9,9,0,0,0,7.69,17.9ZM5,10a7,7,0,1,1,7,7A7,7,0,0,1,5,10Zm14.55,9.11a.94.94,0,0,0-.44.44l-.38.76L16.31,17.9a9,9,0,0,0,1.83-1.34l2.17,2.17Z"/></g></svg>