<svg xmlns="http://www.w3.org/2000/svg" viewBox="0 0 24 24"><title>renovation city real estate home house housing</title><g id="renovation_city_real_estate_home_house_housing" data-name="renovation city real estate home house housing"><path d="M22.71,11.29l-10-10a1,1,0,0,0-1.42,0l-10,10a1,1,0,0,0,1.42,1.42L4,11.41V22a1,1,0,0,0,1,1H19a1,1,0,0,0,1-1V11.41l1.29,1.3a1,1,0,0,0,1.42-1.42ZM18,21H6V9.41l6-6,6,6Z"/><path d="M7,11v2a1,1,0,0,0,1,1h5a1,1,0,0,0,1-1h1v2H11a1,1,0,0,0-1,1v3a1,1,0,0,0,2,0V17h4a1,1,0,0,0,1-1V12a1,1,0,0,0-1-1H14a1,1,0,0,0-1-1H8A1,1,0,0,0,7,11Z"/></g></svg>