<svg xmlns="http://www.w3.org/2000/svg" viewBox="0 0 24 24"><title>scale city real estate home house housing</title><g id="scale_city_real_estate_home_house_housing-2" data-name="scale city real estate home house housing"><path d="M2.71,10.71l.29-.3V18a1,1,0,0,0,1,1H16a1,1,0,0,0,1-1V10.41l.29.3a1,1,0,0,0,1.42-1.42l-8-8a1,1,0,0,0-1.42,0l-8,8a1,1,0,0,0,1.42,1.42ZM10,3.41l5,5V17H5V8.41Z"/><path d="M18,19a1,1,0,0,0-1,1H3a1,1,0,0,0-2,0v2a1,1,0,0,0,2,0H17a1,1,0,0,0,2,0V20A1,1,0,0,0,18,19Z"/><path d="M22,17V3a1,1,0,0,0,0-2H20a1,1,0,0,0,0,2V17a1,1,0,0,0,0,2h2a1,1,0,0,0,0-2Z"/></g></svg>