<svg xmlns="http://www.w3.org/2000/svg" viewBox="0 0 24 24"><title>scale city real estate home house housing_1</title><g id="scale_city_real_estate_home_house_housing" data-name="scale city real estate home house housing"><path d="M9.71,1.29a1,1,0,0,0-1.42,0l-7,7A1,1,0,0,0,1,9v7a1,1,0,0,0,1,1H16a1,1,0,0,0,1-1V9a1,1,0,0,0-.29-.71ZM15,15H3V9.41l6-6,6,6Z"/><path d="M22,15V3a1,1,0,0,0,0-2H20a1,1,0,0,0,0,2V15a1,1,0,0,0,0,2h2a1,1,0,0,0,0-2Z"/><path d="M16,19a1,1,0,0,0-1,1H3a1,1,0,0,0-2,0v2a1,1,0,0,0,2,0H15a1,1,0,0,0,2,0V20A1,1,0,0,0,16,19Z"/></g></svg>