<svg xmlns="http://www.w3.org/2000/svg" viewBox="0 0 24 24"><title>screen city real estate home house housing</title><g id="screen_city_real_estate_home_house_housing" data-name="screen city real estate home house housing"><path d="M8.71,10.71l.29-.3V13a1,1,0,0,0,1,1h4a1,1,0,0,0,1-1V10.41l.29.3a1,1,0,0,0,1.42-1.42c-.14-.13-4.13-4.13-4-4a1,1,0,0,0-1.42,0c-.13.14-4.13,4.13-4,4a1,1,0,1,0,1.42,1.42ZM12,7.41l1,1V12H11V8.41Z"/><path d="M22,1H2A1,1,0,0,0,1,2V17a1,1,0,0,0,1,1h9v3H9a1,1,0,0,0,0,2h6a1,1,0,0,0,0-2H13V18h9a1,1,0,0,0,1-1V2A1,1,0,0,0,22,1ZM21,16H3V3H21Z"/></g></svg>