<svg xmlns="http://www.w3.org/2000/svg" viewBox="0 0 24 24"><title>search city real estate home house housing_1</title><g id="search_city_real_estate_home_house_housing" data-name="search city real estate home house housing"><path d="M22.71,11.29l-10-10a1,1,0,0,0-1.42,0l-10,10A1,1,0,0,0,1,12V22a1,1,0,0,0,1,1H22a1,1,0,0,0,1-1V12A1,1,0,0,0,22.71,11.29ZM21,21H3V12.41l9-9,9,9Z"/><path d="M15.71,16.29l-1.15-1.14A3.41,3.41,0,0,0,15,13.5,3.5,3.5,0,1,0,11.5,17a3.41,3.41,0,0,0,1.65-.44l1.14,1.15a1,1,0,0,0,1.42-1.42ZM11.5,15A1.5,1.5,0,1,1,13,13.5,1.5,1.5,0,0,1,11.5,15Z"/></g></svg>