<svg xmlns="http://www.w3.org/2000/svg" viewBox="0 0 24 24"><title>search city real estate home house housing</title><g id="search_city_real_estate_home_house_housing-2" data-name="search city real estate home house housing"><path d="M22.71,11.29l-10-10a1,1,0,0,0-1.42,0l-10,10a1,1,0,0,0,1.42,1.42L4,11.41V22a1,1,0,0,0,1,1H19a1,1,0,0,0,1-1V11.41l1.29,1.3a1,1,0,0,0,1.42-1.42ZM18,21H6V9.41l6-6,6,6Z"/><path d="M15.71,17.29l-1.15-1.14A3.41,3.41,0,0,0,15,14.5,3.5,3.5,0,1,0,11.5,18a3.41,3.41,0,0,0,1.65-.44l1.14,1.15a1,1,0,0,0,1.42-1.42ZM10,14.5A1.5,1.5,0,1,1,11.5,16,1.5,1.5,0,0,1,10,14.5Z"/></g></svg>