<svg xmlns="http://www.w3.org/2000/svg" viewBox="0 0 24 24"><title>seller city real estate home house housing</title><g id="seller_city_real_estate_home_house_housing-2" data-name="seller city real estate home house housing"><path d="M15.48,9.57A4.93,4.93,0,0,0,17,6,5,5,0,0,0,7,6,4.93,4.93,0,0,0,8.52,9.57,11,11,0,0,0,1,20a1,1,0,0,0,2,0,9,9,0,0,1,5.16-8.13L9,16.2l0,.12,2,6a1,1,0,0,0,1.9,0l2-6,0-.12.86-4.33A9,9,0,0,1,21,20a1,1,0,0,0,2,0A11,11,0,0,0,15.48,9.57ZM9,6a3,3,0,1,1,3,3A3,3,0,0,1,9,6Zm2.39,11h1.22L12,18.84Zm1.79-2H10.82l-.76-3.78a8.66,8.66,0,0,1,3.88,0Z"/></g></svg>