<svg xmlns="http://www.w3.org/2000/svg" viewBox="0 0 24 24"><title>seller city real estate home house housing_1</title><g id="seller_city_real_estate_home_house_housing" data-name="seller city real estate home house housing"><path d="M15.48,9.57A4.93,4.93,0,0,0,17,6,5,5,0,0,0,7,6,4.93,4.93,0,0,0,8.52,9.57,11,11,0,0,0,1,20a1,1,0,0,0,2,0,9,9,0,0,1,6.18-8.54,1,1,0,0,0,.11,1.25l.59.58L8,19.73a1,1,0,0,0,.41,1.1l3,2a1,1,0,0,0,1.1,0l3-2a1,1,0,0,0,.41-1.1l-1.84-6.44.59-.58a1,1,0,0,0,.11-1.25A9,9,0,0,1,21,20a1,1,0,0,0,2,0A11,11,0,0,0,15.48,9.57ZM9,6a3,3,0,1,1,3,3A3,3,0,0,1,9,6Zm3,6.59L11.41,12l.59-.59.59.59Zm0,8.21-1.84-1.23,1.35-4.72a.88.88,0,0,0,1,0l1.35,4.72Z"/></g></svg>