<svg xmlns="http://www.w3.org/2000/svg" viewBox="0 0 24 24"><title>shield city real estate home house housing</title><g id="shield_city_real_estate_home_house_housing" data-name="shield city real estate home house housing"><path d="M22,1H2A1,1,0,0,0,1,2V18a1,1,0,0,0,.63.93l10,4a1,1,0,0,0,.74,0l10-4A1,1,0,0,0,23,18V2A1,1,0,0,0,22,1ZM21,17.32l-9,3.6-9-3.6V3H21Z"/><path d="M6.71,11.71l.29-.3V17a1,1,0,0,0,1,1h8a1,1,0,0,0,1-1V11.41l.29.3a1,1,0,0,0,1.42-1.42l-6-6a1,1,0,0,0-1.42,0c-.28.29-6.28,6.29-6,6a1,1,0,0,0,1.42,1.42ZM12,6.41l3,3V16H9V9.41Z"/></g></svg>