<svg xmlns="http://www.w3.org/2000/svg" viewBox="0 0 24 24"><title>shop city real estate home house housing</title><g id="shop_city_real_estate_home_house_housing" data-name="shop city real estate home house housing"><path d="M22.87,10.5l-4-7A1,1,0,0,0,18,3H6a1,1,0,0,0-.87.5l-4,7A1,1,0,0,0,2,12a1.82,1.82,0,0,1,1.15.36,4.8,4.8,0,0,0,.85.42V20a1,1,0,0,0,1,1H19a1,1,0,0,0,1-1V12.78a5.61,5.61,0,0,0,.85-.42A1.8,1.8,0,0,1,22,12h0C22.6,12,23.17,11.48,22.87,10.5ZM6.58,5H17.42l3,5.31a7.11,7.11,0,0,0-.63.33,2,2,0,0,1-2.31,0,4,4,0,0,0-4.37,0,2,2,0,0,1-2.3,0,4,4,0,0,0-4.36,0,2,2,0,0,1-2.3,0c-.18-.1-.39-.22-.64-.33ZM9,19V16h2v3Zm4,0V15a1,1,0,0,0-1-1H8a1,1,0,0,0-1,1v4H6V12.94a4,4,0,0,0,1.51-.58,2,2,0,0,1,2.3,0,4,4,0,0,0,4.36,0,2,2,0,0,1,2.31,0,4,4,0,0,0,1.52.58V19Z"/></g></svg>