<svg xmlns="http://www.w3.org/2000/svg" viewBox="0 0 24 24"><title>shower water city real estate home house housing</title><g id="shower_water_city_real_estate_home_house_housing" data-name="shower water city real estate home house housing"><path d="M22,14H20.91A6,6,0,0,0,16,9.09V8.5a7.5,7.5,0,0,0-15,0V22a1,1,0,0,0,2,0V8.5a5.5,5.5,0,0,1,11,0v.59A6,6,0,0,0,9.09,14H8a1,1,0,0,0,0,2H22a1,1,0,0,0,0-2Zm-7-3a4,4,0,0,1,3.86,3H11.14A4,4,0,0,1,15,11Z"/><path d="M12,18a1,1,0,0,0-2,0v1a1,1,0,0,0,2,0Z"/><path d="M16,18a1,1,0,0,0-2,0v1a1,1,0,0,0,2,0Z"/><path d="M13,20a1,1,0,0,0-1,1v1a1,1,0,0,0,2,0V21A1,1,0,0,0,13,20Z"/><path d="M19,17a1,1,0,0,0-1,1v1a1,1,0,0,0,2,0V18A1,1,0,0,0,19,17Z"/><path d="M17,20a1,1,0,0,0-1,1v1a1,1,0,0,0,2,0V21A1,1,0,0,0,17,20Z"/></g></svg>