<svg xmlns="http://www.w3.org/2000/svg" viewBox="0 0 24 24"><title>signatur city real estate home house housing</title><g id="signatur_city_real_estate_home_house_housing" data-name="signatur city real estate home house housing"><path d="M23,21.73l-4-14a1,1,0,0,0-.57-.65L11.57,4.16,8.71,1.29a1,1,0,0,0-1.42,0l-6,6a1,1,0,0,0,0,1.42l2.87,2.86,2.92,6.82a1,1,0,0,0,.65.57l7.13,2H2a1,1,0,0,0,0,2H22A1,1,0,0,0,23,21.73ZM8,3.41,9.59,5,5,9.59,3.41,8ZM6.19,11.23l5-5,5.94,2.54L20,18.56l-4.27-4.27a1,1,0,0,0-1.42,1.42L18.56,20,8.73,17.17Z"/></g></svg>