<svg xmlns="http://www.w3.org/2000/svg" viewBox="0 0 24 24"><title>sky scrapper city real estate home house housing</title><g id="sky_scrapper_city_real_estate_home_house_housing" data-name="sky scrapper city real estate home house housing"><path d="M17.29,4l-10-3A1,1,0,0,0,6,2V22a1,1,0,0,0,1,1H17a1,1,0,0,0,1-1V5A1,1,0,0,0,17.29,4ZM16,21H8V3.34l8,2.4Z"/><circle cx="10" cy="19" r="1"/><circle cx="14" cy="19" r="1"/><circle cx="10" cy="16" r="1"/><circle cx="14" cy="16" r="1"/><circle cx="10" cy="13" r="1"/><circle cx="14" cy="13" r="1"/><circle cx="10" cy="10" r="1"/><circle cx="14" cy="10" r="1"/><circle cx="10" cy="7" r="1"/><circle cx="14" cy="7" r="1"/></g></svg>