<svg xmlns="http://www.w3.org/2000/svg" viewBox="0 0 24 24"><title>smart home city real estate house housing</title><g id="smart_home_city_real_estate_house_housing" data-name="smart home city real estate house housing"><path d="M22.71,11.29l-10-10a1,1,0,0,0-1.42,0l-10,10a1,1,0,0,0,1.42,1.42L4,11.41V22a1,1,0,0,0,1,1H19a1,1,0,0,0,1-1V11.41l1.29,1.3a1,1,0,0,0,1.42-1.42ZM18,21H6V9.41l6-6,6,6Z"/><path d="M7.05,13.05a1,1,0,1,0,1.42,1.42,5,5,0,0,1,7.06,0A1,1,0,0,0,17,13.05a7,7,0,0,0-9.9,0Z"/><path d="M9.17,15.17a1,1,0,0,0,1.42,1.42,2,2,0,0,1,2.82,0,1,1,0,0,0,1.42-1.42A4.1,4.1,0,0,0,9.17,15.17Z"/><circle cx="12" cy="18" r="1"/></g></svg>