<svg xmlns="http://www.w3.org/2000/svg" viewBox="0 0 24 24"><title>smartphone city real estate home house housing</title><g id="smartphone_city_real_estate_home_house_housing" data-name="smartphone city real estate home house housing"><path d="M8.71,10.71l.29-.3V13a1,1,0,0,0,1,1h4a1,1,0,0,0,1-1V10.41l.29.3a1,1,0,0,0,1.42-1.42c-.14-.13-4.13-4.13-4-4a1,1,0,0,0-1.42,0c-.13.14-4.13,4.13-4,4a1,1,0,1,0,1.42,1.42ZM12,7.41l1,1V12H11V8.41Z"/><path d="M19,1H5A1,1,0,0,0,4,2V22a1,1,0,0,0,1,1H19a1,1,0,0,0,1-1V2A1,1,0,0,0,19,1ZM18,21H6V3H18Z"/><circle cx="12" cy="19" r="1"/></g></svg>