<svg xmlns="http://www.w3.org/2000/svg" viewBox="0 0 24 24"><title>sofa city real estate home house housing</title><g id="sofa_city_real_estate_home_house_housing-2" data-name="sofa city real estate home house housing"><path d="M22,7a1,1,0,0,0-1,1v4H3V8A1,1,0,0,0,1,8C1,18.78.9,18,1,18a1,1,0,0,0,1,1H3a1,1,0,0,0,2,0H19a1,1,0,0,0,2,0h1a1,1,0,0,0,1-1c0-10.78-.1-10,0-10A1,1,0,0,0,22,7ZM3,17V14h8v3Zm18,0H13V14h8Z"/><path d="M5,11h5a1,1,0,0,0,1-1V5a1,1,0,0,0-1-1H5A1,1,0,0,0,4,5v5A1,1,0,0,0,5,11ZM6,6H9V9H6Z"/><path d="M14,11h5a1,1,0,0,0,1-1V5a1,1,0,0,0-1-1H14a1,1,0,0,0-1,1v5A1,1,0,0,0,14,11Zm1-5h3V9H15Z"/></g></svg>