<svg xmlns="http://www.w3.org/2000/svg" viewBox="0 0 24 24"><title>swimming pool city real estate home house housing</title><g id="swimming_pool_city_real_estate_home_house_housing" data-name="swimming pool city real estate home house housing"><path d="M22,17a4.66,4.66,0,0,1-2.82-.86,7,7,0,0,0-7.7,0,5,5,0,0,1-5.63,0A6.68,6.68,0,0,0,2,15a1,1,0,0,0,0,2,4.66,4.66,0,0,1,2.82.86,7,7,0,0,0,7.69,0,5,5,0,0,1,5.64,0A6.65,6.65,0,0,0,22,19a1,1,0,0,0,0-2Z"/><path d="M22,21a4.66,4.66,0,0,1-2.82-.86,7,7,0,0,0-7.7,0,5,5,0,0,1-5.63,0A6.68,6.68,0,0,0,2,19a1,1,0,0,0,0,2,4.66,4.66,0,0,1,2.82.86,7,7,0,0,0,7.69,0,5,5,0,0,1,5.64,0A6.65,6.65,0,0,0,22,23a1,1,0,0,0,0-2Z"/><path d="M22,8a1,1,0,0,0,1-1V5a4,4,0,0,0-8,0H11a2,2,0,0,1,2-2,1,1,0,0,0,0-2A4,4,0,0,0,9,5v8a4.71,4.71,0,0,1-3.15-.85A6.68,6.68,0,0,0,2,11a1,1,0,0,0,0,2,4.66,4.66,0,0,1,2.82.86,7,7,0,0,0,7.69,0,5,5,0,0,1,5.64,0A6.65,6.65,0,0,0,22,15a1,1,0,0,0,0-2,4.66,4.66,0,0,1-2.82-.86,7.27,7.27,0,0,0-2.18-1V5a2,2,0,0,1,4,0V7A1,1,0,0,0,22,8ZM15,7V8H11V7Zm-3.52,5.14c-.16.1-.32.2-.48.28V10h4v1A6.71,6.71,0,0,0,11.48,12.14Z"/></g></svg>