<svg xmlns="http://www.w3.org/2000/svg" viewBox="0 0 24 24"><title>truck city real estate home house housing</title><g id="truck_city_real_estate_home_house_housing" data-name="truck city real estate home house housing"><path d="M22.89,11.55l-2-4A1,1,0,0,0,20,7H15V6h4a1,1,0,0,0,0-2H14a1,1,0,0,0-1,1V6H2A1,1,0,0,0,1,7v6a1,1,0,0,0,0,.24l1,4A1,1,0,0,0,3,18H4.18a3,3,0,0,0,5.64,0h5.36a3,3,0,0,0,5.64,0H22a1,1,0,0,0,1-1V12A1,1,0,0,0,22.89,11.55ZM3,12.88V8H13v8H9.82a3,3,0,0,0-5.64,0h-.4ZM7,18a1,1,0,1,1,1-1A1,1,0,0,1,7,18Zm11,0a1,1,0,1,1,1-1A1,1,0,0,1,18,18Zm3-2h-.18a3,3,0,0,0-5.64,0H15V9h4.38L21,12.24Z"/><path d="M6,13a1,1,0,0,0,1-1V10a1,1,0,0,0-2,0v2A1,1,0,0,0,6,13Z"/><path d="M10,13a1,1,0,0,0,1-1V10a1,1,0,0,0-2,0v2A1,1,0,0,0,10,13Z"/></g></svg>