<svg xmlns="http://www.w3.org/2000/svg" viewBox="0 0 24 24"><title>umbrella city real estate home house housing</title><g id="umbrella_city_real_estate_home_house_housing" data-name="umbrella city real estate home house housing"><path d="M23,12.94h0A11,11,0,0,0,13,2.05V2a1,1,0,0,0-2,0v0A11,11,0,0,0,1,12.93a1,1,0,0,0,1.89.52A1.74,1.74,0,0,1,4.5,12.5a1.74,1.74,0,0,1,1.61.95,1,1,0,0,0,1.78,0A1.82,1.82,0,0,1,11,13.3V20a1,1,0,0,1-2,0V19a1,1,0,0,0-2,0v1a3,3,0,0,0,6,0V13.3a1.82,1.82,0,0,1,3.11.15,1,1,0,0,0,1.78,0,1.84,1.84,0,0,1,3.22,0A1,1,0,0,0,23,12.94Zm-6-1.53a3.89,3.89,0,0,0-5,0,3.89,3.89,0,0,0-5,0,3.85,3.85,0,0,0-2.5-.91,4,4,0,0,0-1.19.19,9,9,0,0,1,17.38,0,4,4,0,0,0-1.19-.19A3.85,3.85,0,0,0,17,11.41Z"/></g></svg>