<svg xmlns="http://www.w3.org/2000/svg" viewBox="0 0 24 24"><title>icrising city real estate home house housing</title><g id="icrising_city_real_estate_home_house_housing" data-name="icrising city real estate home house housing"><path d="M22,15H19a1,1,0,0,0,0,2h.59l-4,4H2a1,1,0,0,0,0,2H16a1,1,0,0,0,.71-.29L21,18.41V19a1,1,0,0,0,2,0V16A1,1,0,0,0,22,15Z"/><path d="M2.71,10.71l.29-.3V18a1,1,0,0,0,1,1H16a1,1,0,0,0,1-1V10.41l.29.3a1,1,0,0,0,1.42-1.42l-8-8a1,1,0,0,0-1.42,0l-8,8a1,1,0,0,0,1.42,1.42ZM10,3.41l5,5V17H5V8.41Z"/></g></svg>