<svg xmlns="http://www.w3.org/2000/svg" viewBox="0 0 24 24"><title>width city real estate home house housing_1</title><g id="width_city_real_estate_home_house_housing" data-name="width city real estate home house housing"><path d="M20,9a1,1,0,0,0-.29-.71l-7-7a1,1,0,0,0-1.42,0l-7,7A1,1,0,0,0,4,9v7a1,1,0,0,0,1,1H19a1,1,0,0,0,1-1Zm-2,6H6V9.41l6-6,6,6Z"/><path d="M3.71,19.29a1,1,0,0,0-1.42,0l-1,1a1,1,0,0,0,0,1.42l1,1a1,1,0,1,0,1.42-1.42L3.41,21l.3-.29A1,1,0,0,0,3.71,19.29Z"/><path d="M22.71,20.29l-1-1a1,1,0,0,0-1.42,1.42l.3.29-.3.29a1,1,0,0,0,1.42,1.42l1-1A1,1,0,0,0,22.71,20.29Z"/><path d="M18,20H6a1,1,0,0,0,0,2H18a1,1,0,0,0,0-2Z"/></g></svg>