<svg xmlns="http://www.w3.org/2000/svg" viewBox="0 0 24 24"><title>width city real estate home house housing</title><g id="width_city_real_estate_home_house_housing-2" data-name="width city real estate home house housing"><path d="M20.71,10.71a1,1,0,0,0,0-1.42l-8-8a1,1,0,0,0-1.42,0l-8,8a1,1,0,0,0,1.42,1.42l.29-.3V18a1,1,0,0,0,1,1H18a1,1,0,0,0,1-1V10.41l.29.3A1,1,0,0,0,20.71,10.71ZM17,17H7V8.41l5-5,5,5Z"/><path d="M3.71,19.29a1,1,0,0,0-1.42,0l-1,1a1,1,0,0,0,0,1.42l1,1a1,1,0,1,0,1.42-1.42L3.41,21l.3-.29A1,1,0,0,0,3.71,19.29Z"/><path d="M22.71,20.29l-1-1a1,1,0,0,0-1.42,1.42l.3.29-.3.29a1,1,0,0,0,1.42,1.42l1-1A1,1,0,0,0,22.71,20.29Z"/><path d="M18,20H6a1,1,0,0,0,0,2H18a1,1,0,0,0,0-2Z"/></g></svg>