<svg xmlns="http://www.w3.org/2000/svg" viewBox="0 0 24 24"><title>wifi city real estate home house housing_1</title><g id="wifi_city_real_estate_home_house_housing" data-name="wifi city real estate home house housing"><path d="M7.05,13.05a1,1,0,1,0,1.42,1.42,5,5,0,0,1,7.06,0A1,1,0,0,0,17,13.05a7,7,0,0,0-9.9,0Z"/><path d="M9.17,15.17a1,1,0,0,0,1.42,1.42,2,2,0,0,1,2.82,0,1,1,0,0,0,1.42-1.42A4.1,4.1,0,0,0,9.17,15.17Z"/><circle cx="12" cy="18" r="1"/><path d="M22.71,11.29l-10-10a1,1,0,0,0-1.42,0l-10,10A1,1,0,0,0,1,12V22a1,1,0,0,0,1,1H22a1,1,0,0,0,1-1V12A1,1,0,0,0,22.71,11.29ZM21,21H3V12.41l9-9,9,9Z"/></g></svg>