<svg xmlns="http://www.w3.org/2000/svg" viewBox="0 0 24 24"><title>wifi city real estate home house housing</title><g id="wifi_city_real_estate_home_house_housing-2" data-name="wifi city real estate home house housing"><path d="M21.9,8.1a14,14,0,0,0-19.8,0A1,1,0,0,0,3.52,9.52a12,12,0,0,1,17,0A1,1,0,0,0,21.9,8.1Z"/><path d="M12,8a9.93,9.93,0,0,0-7.07,2.93,1,1,0,1,0,1.42,1.42,8,8,0,0,1,11.3,0,1,1,0,1,0,1.42-1.42A9.93,9.93,0,0,0,12,8Z"/><path d="M12,12a5.93,5.93,0,0,0-4.24,1.76,1,1,0,0,0,1.41,1.41,4,4,0,0,1,5.66,0,1,1,0,1,0,1.41-1.41A5.93,5.93,0,0,0,12,12Z"/><circle cx="12" cy="18" r="2"/></g></svg>